M48
;Layer_Color=9474304
;FILE_FORMAT=4:3
METRIC
;TYPE=PLATED
T01F00S00C0.305
T02F00S00C0.900
T03F00S00C1.020
;TYPE=NON_PLATED
T04F00S00C3.302
%
T01
X0006350Y0005080
X0013970Y0006350
X0017780Y0003175
X0020320Y0006985
X0016510Y0015240
X0015875Y0018415
X0019685
X0017780Y0022225
X0018097Y0026035
X0023495
Y0024765
Y0027305
Y0029845
X0020955
X0017145Y0031433
X0014922Y0031750
X0014605Y0036195
Y0040640
X0015875
X0017462Y0040322
X0018415Y0041910
X0023495Y0044450
X0023010Y0045870
X0026875Y0044450
X0030520
X0029210Y0046990
X0022860Y0051752
X0023495Y0052705
X0018415Y0050165
X0015240Y0048895
X0018097Y0033338
X0026670Y0032385
Y0036195
X0030520Y0034290
X0030480Y0028575
X0029845Y0026670
X0026670Y0027305
X0029210Y0020320
X0034607Y0032385
X0033020Y0038100
X0013970Y0037465
Y0035243
Y0032345
X0011113Y0027940
X0013970Y0018415
X0003175Y0033020
X0009842Y0042862
X0009525Y0051118
X0006350Y0053340
Y0060960
X0003810Y0066040
X0003048Y0070358
X0010160Y0071120
X0013947
X0013970Y0073025
Y0074930
Y0078105
Y0082232
Y0087630
X0009525Y0083820
X0013970Y0067310
Y0066040
X0012270Y0058568
X0011748Y0056515
X0017780Y0057150
X0014425Y0061430
X0015875Y0071120
X0017780Y0072390
X0019050Y0071755
X0021590Y0066040
X0027510Y0070485
X0024130Y0081280
Y0082550
Y0083820
Y0085090
Y0086360
Y0087630
X0031115Y0088265
X0022225Y0080010
X0017145Y0080645
X0017780Y0082550
Y0083820
T02
X0011430Y0013970
X0013970
X0031115Y0057785
X0033655
X0024765Y0076200
X0022225
T03
X0005080Y0008890
X0007620
Y0011430
Y0013970
X0005080
Y0011430
Y0016510
X0007620
Y0019050
Y0021590
Y0024130
Y0026670
Y0029210
Y0031750
Y0034290
X0005080
Y0031750
Y0029210
Y0026670
Y0024130
Y0021590
Y0019050
Y0036830
X0007620
Y0039370
X0005080
Y0041910
Y0044450
Y0046990
X0007620
Y0049530
X0005080
Y0052070
X0007620
Y0044450
Y0041910
Y0054610
X0005080
Y0057150
Y0059690
Y0062230
Y0064770
Y0067310
X0007620
Y0069850
Y0072390
X0005080
Y0074930
Y0077470
X0007620
Y0080010
Y0082550
X0005080
Y0085090
X0007620
Y0087630
X0005080
Y0080010
X0007620Y0074930
X0005080Y0069850
X0007620Y0064770
Y0062230
Y0059690
Y0057150
T04
X0005080Y-0001270
X0033020
Y0095250
X0005080
M30
