G04*
G04 #@! TF.GenerationSoftware,Altium Limited,Altium Designer,26.1.1 (7)*
G04*
G04 Layer_Color=2752767*
%FSLAX44Y44*%
%MOMM*%
G71*
G04*
G04 #@! TF.SameCoordinates,EB2907C1-7D21-4337-B9BB-DC35DB918FC6*
G04*
G04*
G04 #@! TF.FilePolarity,Positive*
G04*
G01*
G75*
%ADD49C,0.1270*%
%ADD50C,0.1693*%
D49*
X330200Y947420D02*
X332740Y949960D01*
X335280D01*
X332740Y952500D01*
X335280Y955040D01*
X332740D01*
X330200Y957580D01*
X327660Y955040D01*
X325120D01*
X327660Y952500D01*
X325120Y949960D01*
X327660D01*
X330200Y947420D01*
X50800D02*
X53340Y949960D01*
X55880D01*
X53340Y952500D01*
X55880Y955040D01*
X53340D01*
X50800Y957580D01*
X48260Y955040D01*
X45720D01*
X48260Y952500D01*
X45720Y949960D01*
X48260D01*
X50800Y947420D01*
X330200Y-17780D02*
X332740Y-15240D01*
X335280D01*
X332740Y-12700D01*
X335280Y-10160D01*
X332740D01*
X330200Y-7620D01*
X327660Y-10160D01*
X325120D01*
X327660Y-12700D01*
X325120Y-15240D01*
X327660D01*
X330200Y-17780D01*
X50800D02*
X53340Y-15240D01*
X55880D01*
X53340Y-12700D01*
X55880Y-10160D01*
X53340D01*
X50800Y-7620D01*
X48260Y-10160D01*
X45720D01*
X48260Y-12700D01*
X45720Y-15240D01*
X48260D01*
X50800Y-17780D01*
X134620Y134620D02*
Y144780D01*
X144780D01*
Y134620D01*
X134620D01*
X109220D02*
Y144780D01*
X119380D01*
Y134620D01*
X109220D01*
X217170Y756920D02*
Y767080D01*
X227330D01*
Y756920D01*
X217170D01*
X242570D02*
Y767080D01*
X252730D01*
Y756920D01*
X242570D01*
X331470Y572770D02*
Y582930D01*
X341630D01*
Y572770D01*
X331470D01*
X306070D02*
Y582930D01*
X316230D01*
Y572770D01*
X306070D01*
X117475Y560070D02*
X112395Y570230D01*
X122555D01*
X117475Y560070D01*
X190500Y712470D02*
X185420Y722630D01*
X195580D01*
X190500Y712470D01*
X139700Y775970D02*
X134620Y786130D01*
X144780D01*
X139700Y775970D01*
Y817245D02*
X134620Y827405D01*
X144780D01*
X139700Y817245D01*
X177800Y820420D02*
X172720Y830580D01*
X182880D01*
X177800Y820420D01*
X228600Y512445D02*
X223520Y522605D01*
X233680D01*
X228600Y512445D01*
X101600Y706120D02*
X96520Y716280D01*
X106680D01*
X101600Y706120D01*
X95250Y506095D02*
X90170Y516255D01*
X100330D01*
X95250Y506095D01*
X174625Y398145D02*
X169545Y408305D01*
X179705D01*
X174625Y398145D01*
X98425Y423545D02*
X93345Y433705D01*
X103505D01*
X98425Y423545D01*
X139700Y347345D02*
X134620Y357505D01*
X144780D01*
X139700Y347345D01*
X146050Y356870D02*
X140970Y367030D01*
X151130D01*
X146050Y356870D01*
X180975Y328295D02*
X175895Y338455D01*
X186055D01*
X180975Y328295D01*
Y255270D02*
X175895Y265430D01*
X186055D01*
X180975Y255270D01*
X346075Y318770D02*
X340995Y328930D01*
X351155D01*
X346075Y318770D01*
X139700Y369570D02*
X134620Y379730D01*
X144780D01*
X139700Y369570D01*
X171450Y309245D02*
X166370Y319405D01*
X176530D01*
X171450Y309245D01*
X111125Y274320D02*
X106045Y284480D01*
X116205D01*
X111125Y274320D01*
X139700Y318370D02*
X134620Y328530D01*
X144780D01*
X139700Y318370D01*
X149225Y312420D02*
X144145Y322580D01*
X154305D01*
X149225Y312420D01*
X139700Y58420D02*
X134620Y68580D01*
X144780D01*
X139700Y58420D01*
X63500Y45720D02*
X58420Y55880D01*
X68580D01*
X63500Y45720D01*
X31750Y325120D02*
X26670Y335280D01*
X36830D01*
X31750Y325120D01*
X38100Y655320D02*
X33020Y665480D01*
X43180D01*
X38100Y655320D01*
X241300Y820420D02*
X236220Y830580D01*
X246380D01*
X241300Y820420D01*
X268750Y439420D02*
X263670Y449580D01*
X273830D01*
X268750Y439420D01*
X177800Y217170D02*
X172720Y227330D01*
X182880D01*
X177800Y217170D01*
X292100Y198120D02*
X287020Y208280D01*
X297180D01*
X292100Y198120D01*
X165100Y147320D02*
X160020Y157480D01*
X170180D01*
X165100Y147320D01*
X158750Y401320D02*
X153670Y411480D01*
X163830D01*
X158750Y401320D01*
X177800Y26670D02*
X172720Y36830D01*
X182880D01*
X177800Y26670D01*
X203200Y64770D02*
X198120Y74930D01*
X208280D01*
X203200Y64770D01*
X184150Y496570D02*
X179070Y506730D01*
X189230D01*
X184150Y496570D01*
X122702Y580601D02*
X117622Y590761D01*
X127782D01*
X122702Y580601D01*
X95250Y833120D02*
X90170Y843280D01*
X100330D01*
X95250Y833120D01*
X139700Y655320D02*
X134620Y665480D01*
X144780D01*
X139700Y655320D01*
X177800Y566420D02*
X172720Y576580D01*
X182880D01*
X177800Y566420D01*
Y833120D02*
X172720Y843280D01*
X182880D01*
X177800Y833120D01*
X234950Y439420D02*
X229870Y449580D01*
X240030D01*
X234950Y439420D01*
X266700Y267970D02*
X261620Y278130D01*
X271780D01*
X266700Y267970D01*
X305200Y439420D02*
X300120Y449580D01*
X310280D01*
X305200Y439420D01*
X234950Y521970D02*
X229870Y532130D01*
X240030D01*
X234950Y521970D01*
X241300Y833120D02*
X236220Y843280D01*
X246380D01*
X241300Y833120D01*
X275100Y699770D02*
X270020Y709930D01*
X280180D01*
X275100Y699770D01*
X311150Y877570D02*
X306070Y887730D01*
X316230D01*
X311150Y877570D01*
X209550Y293370D02*
X204470Y303530D01*
X214630D01*
X209550Y293370D01*
X305200Y337820D02*
X300120Y347980D01*
X310280D01*
X305200Y337820D01*
X139700Y725170D02*
X134620Y735330D01*
X144780D01*
X139700Y725170D01*
X234950Y293370D02*
X229870Y303530D01*
X240030D01*
X234950Y293370D01*
X241300Y845820D02*
X236220Y855980D01*
X246380D01*
X241300Y845820D01*
X139470Y706120D02*
X134390Y716280D01*
X144550D01*
X139470Y706120D01*
X139700Y871220D02*
X134620Y881380D01*
X144780D01*
X139700Y871220D01*
X30480Y698500D02*
X25400Y708660D01*
X35560D01*
X30480Y698500D01*
X177800Y718820D02*
X172720Y728980D01*
X182880D01*
X177800Y718820D01*
X241300Y871220D02*
X236220Y881380D01*
X246380D01*
X241300Y871220D01*
X196850Y179070D02*
X191770Y189230D01*
X201930D01*
X196850Y179070D01*
X158750D02*
X153670Y189230D01*
X163830D01*
X158750Y179070D01*
X298450Y261620D02*
X293370Y271780D01*
X303530D01*
X298450Y261620D01*
X184150Y414020D02*
X179070Y424180D01*
X189230D01*
X184150Y414020D01*
X139700Y179070D02*
X134620Y189230D01*
X144780D01*
X139700Y179070D01*
X304800Y280670D02*
X299720Y290830D01*
X309880D01*
X304800Y280670D01*
X144250Y609220D02*
X139170Y619380D01*
X149330D01*
X144250Y609220D01*
X139700Y744220D02*
X134620Y754380D01*
X144780D01*
X139700Y744220D01*
X266700Y356870D02*
X261620Y367030D01*
X271780D01*
X266700Y356870D01*
X234950Y242570D02*
X229870Y252730D01*
X240030D01*
X234950Y242570D01*
X146050Y401320D02*
X140970Y411480D01*
X151130D01*
X146050Y401320D01*
X234950Y255270D02*
X229870Y265430D01*
X240030D01*
X234950Y255270D01*
X63500Y528320D02*
X58420Y538480D01*
X68580D01*
X63500Y528320D01*
X266700Y318770D02*
X261620Y328930D01*
X271780D01*
X266700Y318770D01*
X241300Y858520D02*
X236220Y868680D01*
X246380D01*
X241300Y858520D01*
X171450Y801370D02*
X166370Y811530D01*
X176530D01*
X171450Y801370D01*
X222250Y795020D02*
X217170Y805180D01*
X227330D01*
X222250Y795020D01*
X158750Y706120D02*
X153670Y716280D01*
X163830D01*
X158750Y706120D01*
X241300Y807720D02*
X236220Y817880D01*
X246380D01*
X241300Y807720D01*
X63500Y604520D02*
X58420Y614680D01*
X68580D01*
X63500Y604520D01*
X152400Y483870D02*
X147320Y494030D01*
X157480D01*
X152400Y483870D01*
X139700Y668020D02*
X134620Y678180D01*
X144780D01*
X139700Y668020D01*
X234950Y267970D02*
X229870Y278130D01*
X240030D01*
X234950Y267970D01*
X330200Y375920D02*
X325120Y386080D01*
X335280D01*
X330200Y375920D01*
X230101Y453621D02*
X225021Y463781D01*
X235181D01*
X230101Y453621D01*
X292100Y464820D02*
X287020Y474980D01*
X297180D01*
X292100Y464820D01*
X215900Y655320D02*
X210820Y665480D01*
X220980D01*
X215900Y655320D01*
D50*
X81280Y88900D02*
G03*
X81280Y88900I-5080J0D01*
G01*
Y114300D02*
G03*
X81280Y114300I-5080J0D01*
G01*
Y139700D02*
G03*
X81280Y139700I-5080J0D01*
G01*
Y165100D02*
G03*
X81280Y165100I-5080J0D01*
G01*
Y190500D02*
G03*
X81280Y190500I-5080J0D01*
G01*
Y215900D02*
G03*
X81280Y215900I-5080J0D01*
G01*
Y241300D02*
G03*
X81280Y241300I-5080J0D01*
G01*
Y266700D02*
G03*
X81280Y266700I-5080J0D01*
G01*
Y292100D02*
G03*
X81280Y292100I-5080J0D01*
G01*
Y317500D02*
G03*
X81280Y317500I-5080J0D01*
G01*
Y342900D02*
G03*
X81280Y342900I-5080J0D01*
G01*
X55880Y88900D02*
G03*
X55880Y88900I-5080J0D01*
G01*
Y114300D02*
G03*
X55880Y114300I-5080J0D01*
G01*
Y139700D02*
G03*
X55880Y139700I-5080J0D01*
G01*
Y165100D02*
G03*
X55880Y165100I-5080J0D01*
G01*
Y190500D02*
G03*
X55880Y190500I-5080J0D01*
G01*
Y215900D02*
G03*
X55880Y215900I-5080J0D01*
G01*
Y241300D02*
G03*
X55880Y241300I-5080J0D01*
G01*
Y266700D02*
G03*
X55880Y266700I-5080J0D01*
G01*
Y292100D02*
G03*
X55880Y292100I-5080J0D01*
G01*
Y317500D02*
G03*
X55880Y317500I-5080J0D01*
G01*
Y342900D02*
G03*
X55880Y342900I-5080J0D01*
G01*
X81280Y368300D02*
G03*
X81280Y368300I-5080J0D01*
G01*
Y393700D02*
G03*
X81280Y393700I-5080J0D01*
G01*
X55880Y368300D02*
G03*
X55880Y368300I-5080J0D01*
G01*
Y393700D02*
G03*
X55880Y393700I-5080J0D01*
G01*
X81280Y469900D02*
G03*
X81280Y469900I-5080J0D01*
G01*
X55880D02*
G03*
X55880Y469900I-5080J0D01*
G01*
X81280Y495300D02*
G03*
X81280Y495300I-5080J0D01*
G01*
X55880D02*
G03*
X55880Y495300I-5080J0D01*
G01*
X81280Y546100D02*
G03*
X81280Y546100I-5080J0D01*
G01*
X55880D02*
G03*
X55880Y546100I-5080J0D01*
G01*
X81280Y673100D02*
G03*
X81280Y673100I-5080J0D01*
G01*
X55880D02*
G03*
X55880Y673100I-5080J0D01*
G01*
X81280Y723900D02*
G03*
X81280Y723900I-5080J0D01*
G01*
X55880D02*
G03*
X55880Y723900I-5080J0D01*
G01*
X81280Y774700D02*
G03*
X81280Y774700I-5080J0D01*
G01*
X55880D02*
G03*
X55880Y774700I-5080J0D01*
G01*
X81280Y825500D02*
G03*
X81280Y825500I-5080J0D01*
G01*
X55880D02*
G03*
X55880Y825500I-5080J0D01*
G01*
X81280Y850900D02*
G03*
X81280Y850900I-5080J0D01*
G01*
X55880D02*
G03*
X55880Y850900I-5080J0D01*
G01*
X81280Y876300D02*
G03*
X81280Y876300I-5080J0D01*
G01*
X55880D02*
G03*
X55880Y876300I-5080J0D01*
G01*
Y800100D02*
G03*
X55880Y800100I-5080J0D01*
G01*
X81280D02*
G03*
X81280Y800100I-5080J0D01*
G01*
X55880Y749300D02*
G03*
X55880Y749300I-5080J0D01*
G01*
X81280D02*
G03*
X81280Y749300I-5080J0D01*
G01*
X55880Y698500D02*
G03*
X55880Y698500I-5080J0D01*
G01*
X81280D02*
G03*
X81280Y698500I-5080J0D01*
G01*
X55880Y647700D02*
G03*
X55880Y647700I-5080J0D01*
G01*
X81280D02*
G03*
X81280Y647700I-5080J0D01*
G01*
X55880Y622300D02*
G03*
X55880Y622300I-5080J0D01*
G01*
X81280D02*
G03*
X81280Y622300I-5080J0D01*
G01*
X55880Y596900D02*
G03*
X55880Y596900I-5080J0D01*
G01*
X81280D02*
G03*
X81280Y596900I-5080J0D01*
G01*
X55880Y571500D02*
G03*
X55880Y571500I-5080J0D01*
G01*
X81280D02*
G03*
X81280Y571500I-5080J0D01*
G01*
X55880Y520700D02*
G03*
X55880Y520700I-5080J0D01*
G01*
X81280D02*
G03*
X81280Y520700I-5080J0D01*
G01*
X55880Y444500D02*
G03*
X55880Y444500I-5080J0D01*
G01*
Y419100D02*
G03*
X55880Y419100I-5080J0D01*
G01*
X81280Y444500D02*
G03*
X81280Y444500I-5080J0D01*
G01*
Y419100D02*
G03*
X81280Y419100I-5080J0D01*
G01*
M02*
