G04*
G04 #@! TF.GenerationSoftware,Altium Limited,Altium Designer,26.1.1 (7)*
G04*
G04 Layer_Color=8388736*
%FSLAX44Y44*%
%MOMM*%
G71*
G04*
G04 #@! TF.SameCoordinates,EB2907C1-7D21-4337-B9BB-DC35DB918FC6*
G04*
G04*
G04 #@! TF.FilePolarity,Negative*
G04*
G01*
G75*
%ADD17R,0.9581X0.9121*%
%ADD18R,0.9041X0.6306*%
G04:AMPARAMS|DCode=19|XSize=0.9041mm|YSize=0.6306mm|CornerRadius=0.3153mm|HoleSize=0mm|Usage=FLASHONLY|Rotation=0.000|XOffset=0mm|YOffset=0mm|HoleType=Round|Shape=RoundedRectangle|*
%AMROUNDEDRECTD19*
21,1,0.9041,0.0000,0,0,0.0*
21,1,0.2735,0.6306,0,0,0.0*
1,1,0.6306,0.1368,0.0000*
1,1,0.6306,-0.1368,0.0000*
1,1,0.6306,-0.1368,0.0000*
1,1,0.6306,0.1368,0.0000*
%
%ADD19ROUNDEDRECTD19*%
%ADD20R,1.6000X2.6000*%
%ADD21R,2.6000X1.6000*%
%ADD22R,0.5900X0.4500*%
%ADD23R,4.0000X2.0000*%
%ADD26R,0.9121X0.9581*%
%ADD27R,2.0000X4.0000*%
%ADD28R,1.6000X3.2000*%
%ADD29R,1.1581X1.0121*%
%ADD30R,1.3500X0.6000*%
%ADD32R,1.1532X1.2532*%
%ADD33R,1.0532X1.1532*%
%ADD34R,1.1532X1.0532*%
%ADD35R,1.0032X1.1032*%
%ADD36R,1.1032X1.0032*%
%ADD37O,2.1032X0.8032*%
%ADD38C,3.5052*%
%ADD39C,1.7032*%
%ADD40R,1.7032X1.7032*%
G04:AMPARAMS|DCode=41|XSize=1.7032mm|YSize=1.7032mm|CornerRadius=0.4766mm|HoleSize=0mm|Usage=FLASHONLY|Rotation=270.000|XOffset=0mm|YOffset=0mm|HoleType=Round|Shape=RoundedRectangle|*
%AMROUNDEDRECTD41*
21,1,1.7032,0.7500,0,0,270.0*
21,1,0.7500,1.7032,0,0,270.0*
1,1,0.9532,-0.3750,-0.3750*
1,1,0.9532,-0.3750,0.3750*
1,1,0.9532,0.3750,0.3750*
1,1,0.9532,0.3750,-0.3750*
%
%ADD41ROUNDEDRECTD41*%
%ADD42C,0.8128*%
D17*
X316580Y298450D02*
D03*
X331120D02*
D03*
X293020Y285750D02*
D03*
X278480D02*
D03*
Y304800D02*
D03*
X293020D02*
D03*
X166940Y819150D02*
D03*
X152400D02*
D03*
X278480Y425450D02*
D03*
X293020D02*
D03*
X128840Y368300D02*
D03*
X114300D02*
D03*
Y711200D02*
D03*
X128840D02*
D03*
X152400Y723900D02*
D03*
X166940D02*
D03*
X128840Y857250D02*
D03*
X114300D02*
D03*
X152400Y838200D02*
D03*
X166940D02*
D03*
X128840Y444500D02*
D03*
X114300D02*
D03*
X166020Y641350D02*
D03*
X151480D02*
D03*
X166020Y660400D02*
D03*
X151480D02*
D03*
X114300Y654050D02*
D03*
X128840D02*
D03*
X114300Y635000D02*
D03*
X128840D02*
D03*
X114300Y800100D02*
D03*
X128840D02*
D03*
X210470Y501650D02*
D03*
X195930D02*
D03*
X114300Y673100D02*
D03*
X128840D02*
D03*
X114300Y876300D02*
D03*
X128840D02*
D03*
X316580Y463550D02*
D03*
X331120D02*
D03*
X166020Y546100D02*
D03*
X151480D02*
D03*
X152400Y876300D02*
D03*
X166940D02*
D03*
X114300Y482600D02*
D03*
X128840D02*
D03*
X152400Y857250D02*
D03*
X166940D02*
D03*
X151480Y565150D02*
D03*
X166020D02*
D03*
X202280Y462839D02*
D03*
X216820D02*
D03*
X127920Y596900D02*
D03*
X113380D02*
D03*
X151480Y603250D02*
D03*
X166020D02*
D03*
X113380Y577850D02*
D03*
X127920D02*
D03*
X128840Y501650D02*
D03*
X114300D02*
D03*
Y730250D02*
D03*
X128840D02*
D03*
X114300Y749300D02*
D03*
X128840D02*
D03*
X114300Y819150D02*
D03*
X128840D02*
D03*
X293020Y387350D02*
D03*
X278480D02*
D03*
Y342900D02*
D03*
X293020D02*
D03*
X157830Y349250D02*
D03*
X172370D02*
D03*
X114300D02*
D03*
X128840D02*
D03*
X157830Y368300D02*
D03*
X172370D02*
D03*
X157830Y387350D02*
D03*
X172370D02*
D03*
Y444500D02*
D03*
X157830D02*
D03*
Y425450D02*
D03*
X172370D02*
D03*
X114300Y260350D02*
D03*
X128840D02*
D03*
Y114300D02*
D03*
X114300D02*
D03*
X166020Y31750D02*
D03*
X151480D02*
D03*
X114300D02*
D03*
X128840D02*
D03*
Y463550D02*
D03*
X114300D02*
D03*
X166020Y57150D02*
D03*
X151480D02*
D03*
X202280Y443789D02*
D03*
X216820D02*
D03*
X202280Y482600D02*
D03*
X216820D02*
D03*
X128840Y76200D02*
D03*
X114300D02*
D03*
X128840Y95250D02*
D03*
X114300D02*
D03*
X128840Y781050D02*
D03*
X114300D02*
D03*
X335630Y717550D02*
D03*
X350170D02*
D03*
X128840Y165100D02*
D03*
X114300D02*
D03*
X145130D02*
D03*
X159670D02*
D03*
X128840Y184150D02*
D03*
X114300D02*
D03*
D18*
X268900Y263500D02*
D03*
X114300Y425450D02*
D03*
X148250Y701650D02*
D03*
X154600Y517500D02*
D03*
D19*
X268900Y244500D02*
D03*
X289900Y254000D02*
D03*
X135300Y415950D02*
D03*
X114300Y406450D02*
D03*
X148250Y682650D02*
D03*
X169250Y692150D02*
D03*
X175600Y508000D02*
D03*
X154600Y498500D02*
D03*
D20*
X330200Y324900D02*
D03*
Y360900D02*
D03*
X165100Y786350D02*
D03*
Y750350D02*
D03*
X298450Y760950D02*
D03*
Y724950D02*
D03*
X330200Y401100D02*
D03*
Y437100D02*
D03*
D21*
X156650Y222250D02*
D03*
X120650D02*
D03*
X204250Y412750D02*
D03*
X240250D02*
D03*
X121700Y298450D02*
D03*
X157700D02*
D03*
X204250Y361950D02*
D03*
X240250D02*
D03*
D22*
X148200Y622300D02*
D03*
X169300D02*
D03*
X110100Y50800D02*
D03*
X131200D02*
D03*
X110100Y330200D02*
D03*
X131200D02*
D03*
D23*
X295850Y184150D02*
D03*
X224850D02*
D03*
X295850Y88900D02*
D03*
X224850D02*
D03*
D26*
X323850Y883570D02*
D03*
Y869030D02*
D03*
Y805530D02*
D03*
Y820070D02*
D03*
X311150Y261270D02*
D03*
Y246730D02*
D03*
X190500Y705770D02*
D03*
Y691230D02*
D03*
D27*
X234950Y657800D02*
D03*
Y586800D02*
D03*
D28*
X323850Y666350D02*
D03*
Y616350D02*
D03*
D29*
X351170Y698500D02*
D03*
X334630D02*
D03*
D30*
X249000Y247650D02*
D03*
Y260350D02*
D03*
Y273050D02*
D03*
Y285750D02*
D03*
Y298450D02*
D03*
Y311150D02*
D03*
Y323850D02*
D03*
X195500D02*
D03*
Y311150D02*
D03*
Y298450D02*
D03*
Y285750D02*
D03*
Y273050D02*
D03*
Y260350D02*
D03*
Y247650D02*
D03*
X255350Y800100D02*
D03*
Y812800D02*
D03*
Y825500D02*
D03*
Y838200D02*
D03*
Y850900D02*
D03*
Y863600D02*
D03*
Y876300D02*
D03*
X201850D02*
D03*
Y863600D02*
D03*
Y850900D02*
D03*
Y838200D02*
D03*
Y825500D02*
D03*
Y812800D02*
D03*
Y800100D02*
D03*
D32*
X293000Y323850D02*
D03*
X278500D02*
D03*
X195950Y520700D02*
D03*
X210450D02*
D03*
X128800Y615950D02*
D03*
X114300D02*
D03*
X278500Y406400D02*
D03*
X293000D02*
D03*
X166000Y584200D02*
D03*
X151500D02*
D03*
X293000Y444500D02*
D03*
X278500D02*
D03*
X293000Y361950D02*
D03*
X278500D02*
D03*
X284850Y698500D02*
D03*
X299350D02*
D03*
D33*
X127400Y838200D02*
D03*
X113900D02*
D03*
X127800Y692150D02*
D03*
X114300D02*
D03*
X127800Y387350D02*
D03*
X114300D02*
D03*
X127400Y520700D02*
D03*
X113900D02*
D03*
D34*
X323850Y837800D02*
D03*
Y851300D02*
D03*
D35*
X203200Y556100D02*
D03*
X212700Y536100D02*
D03*
X193700D02*
D03*
X301600Y829150D02*
D03*
X282600D02*
D03*
X292100Y809150D02*
D03*
D36*
X282100Y879450D02*
D03*
Y860450D02*
D03*
X302100Y869950D02*
D03*
X110650Y552450D02*
D03*
X130650Y561950D02*
D03*
Y542950D02*
D03*
X155100Y469900D02*
D03*
X175100Y479400D02*
D03*
Y460400D02*
D03*
X142400Y104750D02*
D03*
Y85750D02*
D03*
X162400Y95250D02*
D03*
D37*
X258450Y692150D02*
D03*
Y704850D02*
D03*
Y717550D02*
D03*
Y730250D02*
D03*
X211450Y692150D02*
D03*
Y704850D02*
D03*
Y717550D02*
D03*
Y730250D02*
D03*
D38*
X330200Y952500D02*
D03*
X50800D02*
D03*
X330200Y-12700D02*
D03*
X50800D02*
D03*
D39*
X139700Y139700D02*
D03*
X76200Y88900D02*
D03*
Y114300D02*
D03*
Y139700D02*
D03*
Y165100D02*
D03*
Y190500D02*
D03*
Y215900D02*
D03*
Y241300D02*
D03*
Y266700D02*
D03*
Y292100D02*
D03*
Y317500D02*
D03*
Y342900D02*
D03*
X50800Y88900D02*
D03*
Y114300D02*
D03*
Y139700D02*
D03*
Y165100D02*
D03*
Y190500D02*
D03*
Y215900D02*
D03*
Y241300D02*
D03*
Y266700D02*
D03*
Y292100D02*
D03*
Y317500D02*
D03*
Y342900D02*
D03*
X76200Y368300D02*
D03*
Y393700D02*
D03*
X50800Y368300D02*
D03*
Y393700D02*
D03*
X76200Y469900D02*
D03*
X50800D02*
D03*
X76200Y495300D02*
D03*
X50800D02*
D03*
X76200Y546100D02*
D03*
X50800D02*
D03*
X76200Y673100D02*
D03*
X50800D02*
D03*
X76200Y723900D02*
D03*
X50800D02*
D03*
X76200Y774700D02*
D03*
X50800D02*
D03*
X76200Y825500D02*
D03*
X50800D02*
D03*
X76200Y850900D02*
D03*
X50800D02*
D03*
X76200Y876300D02*
D03*
X50800Y800100D02*
D03*
X76200D02*
D03*
X50800Y749300D02*
D03*
X76200D02*
D03*
X50800Y698500D02*
D03*
X76200D02*
D03*
X50800Y647700D02*
D03*
X76200D02*
D03*
X50800Y622300D02*
D03*
X76200D02*
D03*
X50800Y596900D02*
D03*
X76200D02*
D03*
X50800Y571500D02*
D03*
X76200D02*
D03*
X50800Y520700D02*
D03*
X76200D02*
D03*
X50800Y444500D02*
D03*
Y419100D02*
D03*
X76200Y444500D02*
D03*
Y419100D02*
D03*
X247650Y762000D02*
D03*
X336550Y577850D02*
D03*
D40*
X114300Y139700D02*
D03*
X222250Y762000D02*
D03*
X311150Y577850D02*
D03*
D41*
X50800Y876300D02*
D03*
D42*
X117475Y565150D02*
D03*
X190500Y717550D02*
D03*
X139700Y781050D02*
D03*
Y822325D02*
D03*
X177800Y825500D02*
D03*
X228600Y517525D02*
D03*
X101600Y711200D02*
D03*
X95250Y511175D02*
D03*
X174625Y403225D02*
D03*
X98425Y428625D02*
D03*
X139700Y352425D02*
D03*
X146050Y361950D02*
D03*
X180975Y333375D02*
D03*
Y260350D02*
D03*
X346075Y323850D02*
D03*
X139700Y374650D02*
D03*
X171450Y314325D02*
D03*
X111125Y279400D02*
D03*
X139700Y323450D02*
D03*
X149225Y317500D02*
D03*
X139700Y63500D02*
D03*
X63500Y50800D02*
D03*
X31750Y330200D02*
D03*
X38100Y660400D02*
D03*
X241300Y825500D02*
D03*
X268750Y444500D02*
D03*
X177800Y222250D02*
D03*
X292100Y203200D02*
D03*
X165100Y152400D02*
D03*
X158750Y406400D02*
D03*
X177800Y31750D02*
D03*
X203200Y69850D02*
D03*
X184150Y501650D02*
D03*
X122702Y585681D02*
D03*
X95250Y838200D02*
D03*
X139700Y660400D02*
D03*
X177800Y571500D02*
D03*
Y838200D02*
D03*
X234950Y444500D02*
D03*
X266700Y273050D02*
D03*
X305200Y444500D02*
D03*
X234950Y527050D02*
D03*
X241300Y838200D02*
D03*
X275100Y704850D02*
D03*
X311150Y882650D02*
D03*
X209550Y298450D02*
D03*
X305200Y342900D02*
D03*
X139700Y730250D02*
D03*
X234950Y298450D02*
D03*
X241300Y850900D02*
D03*
X139470Y711200D02*
D03*
X139700Y876300D02*
D03*
X30480Y703580D02*
D03*
X177800Y723900D02*
D03*
X241300Y876300D02*
D03*
X196850Y184150D02*
D03*
X158750D02*
D03*
X298450Y266700D02*
D03*
X184150Y419100D02*
D03*
X139700Y184150D02*
D03*
X304800Y285750D02*
D03*
X144250Y614300D02*
D03*
X139700Y749300D02*
D03*
X266700Y361950D02*
D03*
X234950Y247650D02*
D03*
X146050Y406400D02*
D03*
X234950Y260350D02*
D03*
X63500Y533400D02*
D03*
X266700Y323850D02*
D03*
X241300Y863600D02*
D03*
X171450Y806450D02*
D03*
X222250Y800100D02*
D03*
X158750Y711200D02*
D03*
X241300Y812800D02*
D03*
X63500Y609600D02*
D03*
X152400Y488950D02*
D03*
X139700Y673100D02*
D03*
X234950Y273050D02*
D03*
X330200Y381000D02*
D03*
X230101Y458701D02*
D03*
X292100Y469900D02*
D03*
X215900Y660400D02*
D03*
M02*
