G04*
G04 #@! TF.GenerationSoftware,Altium Limited,Altium Designer,26.1.1 (7)*
G04*
G04 Layer_Color=65535*
%FSLAX44Y44*%
%MOMM*%
G71*
G04*
G04 #@! TF.SameCoordinates,EB2907C1-7D21-4337-B9BB-DC35DB918FC6*
G04*
G04*
G04 #@! TF.FilePolarity,Positive*
G04*
G01*
G75*
%ADD10C,0.2540*%
%ADD11C,0.2500*%
%ADD12C,0.4000*%
%ADD13C,0.2000*%
D10*
X375200Y952500D02*
G03*
X375200Y952500I-45000J0D01*
G01*
X95800D02*
G03*
X95800Y952500I-45000J0D01*
G01*
X375200Y-12700D02*
G03*
X375200Y-12700I-45000J0D01*
G01*
X95800D02*
G03*
X95800Y-12700I-45000J0D01*
G01*
X129560Y-48260D02*
X119403D01*
X129560Y-38103D01*
Y-35564D01*
X127021Y-33025D01*
X121942D01*
X119403Y-35564D01*
X134638D02*
X137177Y-33025D01*
X142256D01*
X144795Y-35564D01*
Y-45721D01*
X142256Y-48260D01*
X137177D01*
X134638Y-45721D01*
Y-35564D01*
X160030Y-48260D02*
X149873D01*
X160030Y-38103D01*
Y-35564D01*
X157491Y-33025D01*
X152412D01*
X149873Y-35564D01*
X175265Y-33025D02*
X165108D01*
Y-40642D01*
X170187Y-38103D01*
X172726D01*
X175265Y-40642D01*
Y-45721D01*
X172726Y-48260D01*
X167647D01*
X165108Y-45721D01*
X180343Y-40642D02*
X190500D01*
X195578Y-48260D02*
X200657D01*
X198118D01*
Y-33025D01*
X195578Y-35564D01*
X208274Y-48260D02*
X213353D01*
X210813D01*
Y-33025D01*
X208274Y-35564D01*
X220970Y-40642D02*
X231127D01*
X236205Y-35564D02*
X238744Y-33025D01*
X243823D01*
X246362Y-35564D01*
Y-45721D01*
X243823Y-48260D01*
X238744D01*
X236205Y-45721D01*
Y-35564D01*
X251440Y-33025D02*
X261597D01*
Y-35564D01*
X251440Y-45721D01*
Y-48260D01*
X118133Y952493D02*
X133369D01*
X125751D01*
Y929640D01*
X144795D02*
X152412D01*
X156221Y933449D01*
Y941066D01*
X152412Y944875D01*
X144795D01*
X140986Y941066D01*
Y933449D01*
X144795Y929640D01*
X167647Y944875D02*
X175265D01*
X179074Y941066D01*
Y929640D01*
X167647D01*
X163839Y933449D01*
X167647Y937258D01*
X179074D01*
X186691Y929640D02*
X198118D01*
X201926Y933449D01*
X198118Y937258D01*
X190500D01*
X186691Y941066D01*
X190500Y944875D01*
X201926D01*
X213353Y948684D02*
Y944875D01*
X209544D01*
X217161D01*
X213353D01*
Y933449D01*
X217161Y929640D01*
X240014D02*
X232397D01*
X228588Y933449D01*
Y941066D01*
X232397Y944875D01*
X240014D01*
X243823Y941066D01*
Y937258D01*
X228588D01*
X251440Y944875D02*
Y929640D01*
Y937258D01*
X255249Y941066D01*
X259058Y944875D01*
X262867D01*
X139082Y967740D02*
Y990593D01*
X154317Y967740D01*
Y990593D01*
X165743Y967740D02*
X173361D01*
X177169Y971549D01*
Y979166D01*
X173361Y982975D01*
X165743D01*
X161934Y979166D01*
Y971549D01*
X165743Y967740D01*
X184787D02*
X192404D01*
X188596D01*
Y982975D01*
X184787D01*
X203831Y967740D02*
X215257D01*
X219066Y971549D01*
X215257Y975358D01*
X207640D01*
X203831Y979166D01*
X207640Y982975D01*
X219066D01*
X238110Y967740D02*
X230492D01*
X226683Y971549D01*
Y979166D01*
X230492Y982975D01*
X238110D01*
X241918Y979166D01*
Y975358D01*
X226683D01*
X105437Y-2547D02*
Y-17782D01*
X113055D01*
X115594Y-15243D01*
Y-5086D01*
X113055Y-2547D01*
X105437D01*
X128290Y-17782D02*
X123212D01*
X120673Y-15243D01*
Y-10164D01*
X123212Y-7625D01*
X128290D01*
X130829Y-10164D01*
Y-12703D01*
X120673D01*
X135908Y-7625D02*
Y-17782D01*
Y-12703D01*
X138447Y-10164D01*
X140986Y-7625D01*
X143525D01*
X158760Y-17782D02*
X153682D01*
X151143Y-15243D01*
Y-10164D01*
X153682Y-7625D01*
X158760D01*
X161299Y-10164D01*
Y-12703D01*
X151143D01*
X166378Y-17782D02*
Y-2547D01*
Y-12703D02*
X173995Y-7625D01*
X166378Y-12703D02*
X173995Y-17782D01*
X196848Y-2547D02*
Y-17782D01*
X201926Y-12703D01*
X207005Y-17782D01*
Y-2547D01*
X212083Y-7625D02*
Y-17782D01*
Y-12703D01*
X214622Y-10164D01*
X217161Y-7625D01*
X219701D01*
X227318Y-17782D02*
X232397D01*
X229857D01*
Y-7625D01*
X227318D01*
X245092Y-22860D02*
X247631D01*
X250171Y-20321D01*
Y-7625D01*
X242553D01*
X240014Y-10164D01*
Y-15243D01*
X242553Y-17782D01*
X250171D01*
X255249Y-2547D02*
Y-17782D01*
Y-10164D01*
X257788Y-7625D01*
X262867D01*
X265406Y-10164D01*
Y-17782D01*
X273023Y-5086D02*
Y-7625D01*
X270484D01*
X275562D01*
X273023D01*
Y-15243D01*
X275562Y-17782D01*
D11*
X331450Y306150D02*
G03*
X331450Y306150I-1250J0D01*
G01*
X176650Y222250D02*
G03*
X176650Y222250I-1250J0D01*
G01*
X140000Y622550D02*
G03*
X140000Y622550I-1250J0D01*
G01*
X260250Y412750D02*
G03*
X260250Y412750I-1250J0D01*
G01*
X323100Y184150D02*
G03*
X323100Y184150I-1250J0D01*
G01*
X141900Y50550D02*
G03*
X141900Y50550I-1250J0D01*
G01*
X185450Y536100D02*
G03*
X185450Y536100I-1250J0D01*
G01*
X323100Y88900D02*
G03*
X323100Y88900I-1250J0D01*
G01*
X283350Y888950D02*
G03*
X283350Y888950I-1250J0D01*
G01*
X312350Y829150D02*
G03*
X312350Y829150I-1250J0D01*
G01*
X236200Y560800D02*
G03*
X236200Y560800I-1250J0D01*
G01*
X166350Y805100D02*
G03*
X166350Y805100I-1250J0D01*
G01*
X131900Y533450D02*
G03*
X131900Y533450I-1250J0D01*
G01*
X299700Y779700D02*
G03*
X299700Y779700I-1250J0D01*
G01*
X176350Y450900D02*
G03*
X176350Y450900I-1250J0D01*
G01*
X143650Y114250D02*
G03*
X143650Y114250I-1250J0D01*
G01*
X177700Y298450D02*
G03*
X177700Y298450I-1250J0D01*
G01*
X141900Y329950D02*
G03*
X141900Y329950I-1250J0D01*
G01*
X331450Y382350D02*
G03*
X331450Y382350I-1250J0D01*
G01*
X260250Y361950D02*
G03*
X260250Y361950I-1250J0D01*
G01*
X33750Y876100D02*
G03*
X33750Y876100I-1250J0D01*
G01*
X312400Y598350D02*
G03*
X312400Y598350I-1250J0D01*
G01*
X263750Y247650D02*
G03*
X263750Y247650I-1250J0D01*
G01*
X270100Y800100D02*
G03*
X270100Y800100I-1250J0D01*
G01*
X212700Y738750D02*
G03*
X212700Y738750I-1250J0D01*
G01*
D12*
X234950Y728200D02*
G03*
X234950Y728200I-2000J0D01*
G01*
D13*
X101600Y152400D02*
X152400D01*
X101600Y127000D02*
Y152400D01*
Y127000D02*
X152400D01*
Y152400D01*
X311790Y289889D02*
X335910D01*
X311790Y307011D02*
X335910D01*
X273690Y294311D02*
X297810D01*
X273690Y277189D02*
X297810D01*
X273690Y296239D02*
X297810D01*
X273690Y313361D02*
X297810D01*
X277171Y268600D02*
X285900D01*
Y239400D02*
Y247097D01*
Y260903D02*
Y268600D01*
X277171Y239400D02*
X285900D01*
X272900Y251403D02*
Y256597D01*
X341950Y320400D02*
X352700D01*
X307700D02*
X318450D01*
X307700D02*
Y355400D01*
X352700Y320400D02*
Y355400D01*
X307700D02*
X317700Y365400D01*
X342700D02*
X352700Y355400D01*
X147609Y827711D02*
X171730D01*
X147609Y810589D02*
X171730D01*
X161150Y234000D02*
Y244750D01*
Y199750D02*
Y210500D01*
X126150Y199750D02*
X161150D01*
X126150Y244750D02*
X161150D01*
X116150Y209750D02*
X126150Y199750D01*
X116150Y234750D02*
X126150Y244750D01*
X149750Y629300D02*
X167750D01*
Y615300D02*
Y616300D01*
Y628300D02*
Y629300D01*
X149750Y615300D02*
X167750D01*
X149750D02*
Y616300D01*
Y628300D02*
Y629300D01*
X199750Y425250D02*
X209750Y435250D01*
X199750Y400250D02*
X209750Y390250D01*
Y435250D02*
X244750D01*
X209750Y390250D02*
X244750D01*
Y401000D01*
Y424500D02*
Y435250D01*
X273690Y416889D02*
X297810D01*
X273690Y434011D02*
X297810D01*
X109509Y376861D02*
X133630D01*
X109509Y359739D02*
X133630D01*
X109509Y702639D02*
X133630D01*
X109509Y719761D02*
X133630D01*
X147609Y715339D02*
X171730D01*
X147609Y732461D02*
X171730D01*
X109509Y865811D02*
X133630D01*
X109509Y848689D02*
X133630D01*
X118300Y413353D02*
Y418547D01*
X122571Y401350D02*
X131300D01*
Y422853D02*
Y430550D01*
Y401350D02*
Y409047D01*
X122571Y430550D02*
X131300D01*
X147609Y829639D02*
X171730D01*
X147609Y846761D02*
X171730D01*
X156521Y706750D02*
X165250D01*
Y677550D02*
Y685247D01*
Y699053D02*
Y706750D01*
X156521Y677550D02*
X165250D01*
X152250Y689553D02*
Y694747D01*
X109509Y453061D02*
X133630D01*
X109509Y435939D02*
X133630D01*
X302850Y197900D02*
Y226650D01*
Y141650D02*
Y170400D01*
X227850Y226650D02*
X302850D01*
X227850Y141650D02*
X302850D01*
X217850Y151650D02*
Y169150D01*
Y199150D02*
Y216650D01*
X227850Y226650D01*
X217850Y151650D02*
X227850Y141650D01*
X129650Y43800D02*
Y44800D01*
Y56800D02*
Y57800D01*
X111650D02*
X129650D01*
X111650Y43800D02*
Y44800D01*
Y56800D02*
Y57800D01*
Y43800D02*
X129650D01*
X146690Y649911D02*
X170810D01*
X146690Y632789D02*
X170810D01*
X211200Y552600D02*
X217800D01*
Y544450D02*
Y552600D01*
X188600D02*
X195200D01*
X188600Y544450D02*
Y552600D01*
X146690Y668961D02*
X170810D01*
X146690Y651839D02*
X170810D01*
X109509Y645489D02*
X133630D01*
X109509Y662611D02*
X133630D01*
X109509Y626439D02*
X133630D01*
X109509Y643561D02*
X133630D01*
X302850Y102650D02*
Y131400D01*
Y46400D02*
Y75150D01*
X227850Y131400D02*
X302850D01*
X227850Y46400D02*
X302850D01*
X217850Y56400D02*
Y73900D01*
Y103900D02*
Y121400D01*
X227850Y131400D01*
X217850Y56400D02*
X227850Y46400D01*
X290450Y884550D02*
X298600D01*
Y877950D02*
Y884550D01*
X290450Y855350D02*
X298600D01*
Y861950D01*
X306700Y812650D02*
Y820800D01*
X300100Y812650D02*
X306700D01*
X277500D02*
Y820800D01*
Y812650D02*
X284100D01*
X109509Y791539D02*
X133630D01*
X109509Y808661D02*
X133630D01*
X191140Y510211D02*
X215260D01*
X191140Y493089D02*
X215260D01*
X315289Y864240D02*
Y888360D01*
X332411Y864240D02*
Y888360D01*
X109509Y664539D02*
X133630D01*
X109509Y681661D02*
X133630D01*
X192450Y654800D02*
X202450Y664800D01*
X267450D02*
X277450Y654800D01*
X249950Y664800D02*
X267450D01*
X202450D02*
X219950D01*
X192450Y579800D02*
Y654800D01*
X277450Y579800D02*
Y654800D01*
X192450Y579800D02*
X221200D01*
X248700D02*
X277450D01*
X109509Y867739D02*
X133630D01*
X109509Y884861D02*
X133630D01*
X311790Y454989D02*
X335910D01*
X311790Y472111D02*
X335910D01*
X142600Y790850D02*
X153350D01*
X176850D02*
X187600D01*
Y755850D02*
Y790850D01*
X142600Y755850D02*
Y790850D01*
X177600Y745850D02*
X187600Y755850D01*
X142600D02*
X152600Y745850D01*
X146690Y554661D02*
X170810D01*
X146690Y537539D02*
X170810D01*
X147609Y867739D02*
X171730D01*
X147609Y884861D02*
X171730D01*
X338850Y675350D02*
X348850D01*
X298850D02*
X308850D01*
X338850Y607350D02*
X357850D01*
X348850Y675350D02*
X357850Y666350D01*
X289850Y607350D02*
X308850D01*
X289850Y666350D02*
X298850Y675350D01*
X357850Y607350D02*
Y666350D01*
X289850Y607350D02*
Y666350D01*
X109509Y474039D02*
X133630D01*
X109509Y491161D02*
X133630D01*
X147609Y848689D02*
X171730D01*
X147609Y865811D02*
X171730D01*
X146690Y556589D02*
X170810D01*
X146690Y573711D02*
X170810D01*
X114150Y560450D02*
Y567050D01*
X122300D01*
X114150Y537850D02*
Y544450D01*
Y537850D02*
X122300D01*
X275950Y765450D02*
X286700D01*
X310200D02*
X320950D01*
Y730450D02*
Y765450D01*
X275950Y730450D02*
Y765450D01*
X310950Y720450D02*
X320950Y730450D01*
X275950D02*
X285950Y720450D01*
X328840Y707561D02*
X356960D01*
X328840Y689439D02*
X356960D01*
X332411Y800740D02*
Y824860D01*
X315289Y800740D02*
Y824860D01*
X197490Y454278D02*
X221610D01*
X197490Y471400D02*
X221610D01*
X108590Y605461D02*
X132710D01*
X108590Y588339D02*
X132710D01*
X146690Y594689D02*
X170810D01*
X146690Y611811D02*
X170810D01*
X108590Y569289D02*
X132710D01*
X108590Y586411D02*
X132710D01*
X109509Y510211D02*
X133630D01*
X109509Y493089D02*
X133630D01*
X158600Y505403D02*
Y510597D01*
X162871Y493400D02*
X171600D01*
Y514903D02*
Y522600D01*
Y493400D02*
Y501097D01*
X162871Y522600D02*
X171600D01*
X158600Y477900D02*
Y484500D01*
X166750D01*
X158600Y455300D02*
Y461900D01*
Y455300D02*
X166750D01*
X109509Y721689D02*
X133630D01*
X109509Y738811D02*
X133630D01*
X109509Y740739D02*
X133630D01*
X109509Y757861D02*
X133630D01*
X150750Y109850D02*
X158900D01*
Y103250D02*
Y109850D01*
X150750Y80650D02*
X158900D01*
Y87250D01*
X117200Y310950D02*
X127200Y320950D01*
X117200Y285950D02*
X127200Y275950D01*
Y320950D02*
X162200D01*
X127200Y275950D02*
X162200D01*
Y286700D01*
Y310200D02*
Y320950D01*
X129650Y323200D02*
Y324200D01*
Y336200D02*
Y337200D01*
X111650D02*
X129650D01*
X111650Y323200D02*
Y324200D01*
Y336200D02*
Y337200D01*
Y323200D02*
X129650D01*
X109509Y810589D02*
X133630D01*
X109509Y827711D02*
X133630D01*
X273690Y395911D02*
X297810D01*
X273690Y378789D02*
X297810D01*
X341950Y396600D02*
X352700D01*
X307700D02*
X318450D01*
X307700D02*
Y431600D01*
X352700Y396600D02*
Y431600D01*
X307700D02*
X317700Y441600D01*
X342700D02*
X352700Y431600D01*
X199750Y374450D02*
X209750Y384450D01*
X199750Y349450D02*
X209750Y339450D01*
Y384450D02*
X244750D01*
X209750Y339450D02*
X244750D01*
Y350200D01*
Y373700D02*
Y384450D01*
X273690Y334339D02*
X297810D01*
X273690Y351461D02*
X297810D01*
X37350Y892750D02*
X89650D01*
X37350Y72450D02*
Y892750D01*
Y72450D02*
X89650D01*
Y892750D01*
X260350Y749300D02*
Y774700D01*
X209550Y749300D02*
X260350D01*
X209550D02*
Y774700D01*
X260350D01*
X297150Y563850D02*
Y591850D01*
X350550Y563850D02*
Y591850D01*
X297150D02*
X350550D01*
X297150Y563850D02*
X350550D01*
X206000Y242000D02*
X238500D01*
X206000Y329500D02*
X238500D01*
X153040Y340689D02*
X177160D01*
X153040Y357811D02*
X177160D01*
X109509Y340689D02*
X133630D01*
X109509Y357811D02*
X133630D01*
X153040Y359739D02*
X177160D01*
X153040Y376861D02*
X177160D01*
X153040Y378789D02*
X177160D01*
X153040Y395911D02*
X177160D01*
X153040Y453061D02*
X177160D01*
X153040Y435939D02*
X177160D01*
X153040Y416889D02*
X177160D01*
X153040Y434011D02*
X177160D01*
X109509Y251789D02*
X133630D01*
X109509Y268911D02*
X133630D01*
X302589Y241940D02*
Y266060D01*
X319711Y241940D02*
Y266060D01*
X109509Y122861D02*
X133630D01*
X109509Y105739D02*
X133630D01*
X146690Y40311D02*
X170810D01*
X146690Y23189D02*
X170810D01*
X109509D02*
X133630D01*
X109509Y40311D02*
X133630D01*
X109509Y472111D02*
X133630D01*
X109509Y454989D02*
X133630D01*
X146690Y65711D02*
X170810D01*
X146690Y48589D02*
X170810D01*
X197490Y435229D02*
X221610D01*
X197490Y452350D02*
X221610D01*
X197490Y474039D02*
X221610D01*
X197490Y491161D02*
X221610D01*
X109509Y84761D02*
X133630D01*
X109509Y67639D02*
X133630D01*
X109509Y103811D02*
X133630D01*
X109509Y86689D02*
X133630D01*
X212350Y794450D02*
X244850D01*
X212350Y881950D02*
X244850D01*
X109509Y789611D02*
X133630D01*
X109509Y772489D02*
X133630D01*
X330840Y708989D02*
X354960D01*
X330840Y726111D02*
X354960D01*
X224950Y686200D02*
X244950D01*
X224950Y736200D02*
X244950D01*
Y686200D02*
Y736200D01*
X224950Y686200D02*
Y736200D01*
X109509Y173661D02*
X133630D01*
X109509Y156539D02*
X133630D01*
X140340D02*
X164460D01*
X140340Y173661D02*
X164460D01*
X181939Y686440D02*
Y710560D01*
X199061Y686440D02*
Y710560D01*
X109509Y192711D02*
X133630D01*
X109509Y175589D02*
X133630D01*
M02*
