G04*
G04 #@! TF.GenerationSoftware,Altium Limited,Altium Designer,26.1.1 (7)*
G04*
G04 Layer_Physical_Order=2*
G04 Layer_Color=16711680*
%FSLAX44Y44*%
%MOMM*%
G71*
G04*
G04 #@! TF.SameCoordinates,EB2907C1-7D21-4337-B9BB-DC35DB918FC6*
G04*
G04*
G04 #@! TF.FilePolarity,Positive*
G04*
G01*
G75*
%ADD10C,0.2540*%
%ADD44C,3.3020*%
%ADD45C,1.5000*%
%ADD46R,1.5000X1.5000*%
G04:AMPARAMS|DCode=47|XSize=1.5mm|YSize=1.5mm|CornerRadius=0.375mm|HoleSize=0mm|Usage=FLASHONLY|Rotation=270.000|XOffset=0mm|YOffset=0mm|HoleType=Round|Shape=RoundedRectangle|*
%AMROUNDEDRECTD47*
21,1,1.5000,0.7500,0,0,270.0*
21,1,0.7500,1.5000,0,0,270.0*
1,1,0.7500,-0.3750,-0.3750*
1,1,0.7500,-0.3750,0.3750*
1,1,0.7500,0.3750,0.3750*
1,1,0.7500,0.3750,-0.3750*
%
%ADD47ROUNDEDRECTD47*%
%ADD48C,0.6096*%
G36*
X42131Y1000760D02*
X38084Y999955D01*
X31999Y997889D01*
X26235Y995047D01*
X20892Y991477D01*
X16060Y987240D01*
X11823Y982408D01*
X8253Y977065D01*
X5411Y971301D01*
X3345Y965216D01*
X2540Y961169D01*
X0Y961420D01*
Y1003300D01*
X41880D01*
X42131Y1000760D01*
D02*
G37*
G36*
X381000Y961420D02*
X378460Y961169D01*
X377655Y965216D01*
X375589Y971301D01*
X372747Y977065D01*
X369177Y982408D01*
X364940Y987240D01*
X360108Y991477D01*
X354765Y995047D01*
X349001Y997889D01*
X342916Y999955D01*
X338869Y1000760D01*
X339119Y1003300D01*
X381000D01*
Y961420D01*
D02*
G37*
G36*
X321531Y1000760D02*
X317484Y999955D01*
X311399Y997889D01*
X305635Y995047D01*
X300292Y991477D01*
X295460Y987240D01*
X291223Y982408D01*
X287653Y977065D01*
X284811Y971301D01*
X282745Y965216D01*
X281491Y958913D01*
X281071Y952500D01*
X281491Y946087D01*
X282745Y939784D01*
X284811Y933699D01*
X287653Y927935D01*
X291223Y922592D01*
X295460Y917760D01*
X300292Y913523D01*
X305635Y909953D01*
X311399Y907111D01*
X317484Y905045D01*
X323787Y903791D01*
X330200Y903371D01*
X336613Y903791D01*
X342916Y905045D01*
X349001Y907111D01*
X354765Y909953D01*
X360108Y913523D01*
X364940Y917760D01*
X369177Y922592D01*
X372747Y927935D01*
X375589Y933699D01*
X377655Y939784D01*
X378460Y943831D01*
X381000Y943580D01*
Y-3780D01*
X378460Y-4031D01*
X377655Y16D01*
X375589Y6101D01*
X372747Y11865D01*
X369177Y17208D01*
X364940Y22040D01*
X360108Y26277D01*
X354765Y29847D01*
X349001Y32689D01*
X342916Y34755D01*
X336613Y36009D01*
X330200Y36429D01*
X323787Y36009D01*
X317484Y34755D01*
X311399Y32689D01*
X305635Y29847D01*
X300292Y26277D01*
X295460Y22040D01*
X291223Y17208D01*
X287653Y11865D01*
X284811Y6101D01*
X282745Y16D01*
X281491Y-6287D01*
X281071Y-12700D01*
X281491Y-19113D01*
X282745Y-25416D01*
X284811Y-31501D01*
X287653Y-37265D01*
X291223Y-42608D01*
X295460Y-47440D01*
X300292Y-51677D01*
X305635Y-55247D01*
X311399Y-58089D01*
X317484Y-60155D01*
X321531Y-60960D01*
X321281Y-63500D01*
X59720D01*
X59469Y-60960D01*
X63516Y-60155D01*
X69601Y-58089D01*
X75365Y-55247D01*
X80708Y-51677D01*
X85540Y-47440D01*
X89777Y-42608D01*
X93347Y-37265D01*
X96189Y-31501D01*
X98255Y-25416D01*
X99509Y-19113D01*
X99929Y-12700D01*
X99509Y-6287D01*
X98255Y16D01*
X96189Y6101D01*
X93347Y11865D01*
X89777Y17208D01*
X85540Y22040D01*
X80708Y26277D01*
X75365Y29847D01*
X69601Y32689D01*
X63516Y34755D01*
X57213Y36009D01*
X50800Y36429D01*
X44387Y36009D01*
X38084Y34755D01*
X31999Y32689D01*
X26235Y29847D01*
X20892Y26277D01*
X16060Y22040D01*
X11823Y17208D01*
X8253Y11865D01*
X5411Y6101D01*
X3345Y16D01*
X2540Y-4031D01*
X0Y-3780D01*
Y943580D01*
X2540Y943831D01*
X3345Y939784D01*
X5411Y933699D01*
X8253Y927935D01*
X11823Y922592D01*
X16060Y917760D01*
X20892Y913523D01*
X26235Y909953D01*
X31999Y907111D01*
X38084Y905045D01*
X44387Y903791D01*
X50800Y903371D01*
X57213Y903791D01*
X63516Y905045D01*
X69601Y907111D01*
X75365Y909953D01*
X80708Y913523D01*
X85540Y917760D01*
X89777Y922592D01*
X93347Y927935D01*
X96189Y933699D01*
X98255Y939784D01*
X99509Y946087D01*
X99929Y952500D01*
X99509Y958913D01*
X98255Y965216D01*
X96189Y971301D01*
X93347Y977065D01*
X89777Y982408D01*
X85540Y987240D01*
X80708Y991477D01*
X75365Y995047D01*
X69601Y997889D01*
X63516Y999955D01*
X59469Y1000760D01*
X59720Y1003300D01*
X321281D01*
X321531Y1000760D01*
D02*
G37*
G36*
X381000Y-21620D02*
Y-63500D01*
X339119D01*
X338869Y-60960D01*
X342916Y-60155D01*
X349001Y-58089D01*
X354765Y-55247D01*
X360108Y-51677D01*
X364940Y-47440D01*
X369177Y-42608D01*
X372747Y-37265D01*
X375589Y-31501D01*
X377655Y-25416D01*
X378460Y-21369D01*
X381000Y-21620D01*
D02*
G37*
G36*
X3345Y-25416D02*
X5411Y-31501D01*
X8253Y-37265D01*
X11823Y-42608D01*
X16060Y-47440D01*
X20892Y-51677D01*
X26235Y-55247D01*
X31999Y-58089D01*
X38084Y-60155D01*
X42131Y-60960D01*
X41880Y-63500D01*
X0D01*
Y-21620D01*
X2540Y-21369D01*
X3345Y-25416D01*
D02*
G37*
%LPC*%
G36*
X301625Y895024D02*
X301625Y895024D01*
X231775D01*
X231775Y895024D01*
X230685Y894807D01*
X229761Y894189D01*
X229761Y894189D01*
X179192Y843621D01*
X177800Y843897D01*
X175620Y843464D01*
X173771Y842229D01*
X172536Y840380D01*
X172103Y838200D01*
X172379Y836808D01*
X151220Y815649D01*
X144338D01*
X143568Y818189D01*
X143729Y818296D01*
X144964Y820145D01*
X145398Y822325D01*
X144964Y824505D01*
X143729Y826354D01*
X142549Y827142D01*
Y871483D01*
X143729Y872271D01*
X144964Y874120D01*
X145398Y876300D01*
X144964Y878480D01*
X143729Y880329D01*
X141880Y881564D01*
X139700Y881998D01*
X137520Y881564D01*
X135671Y880329D01*
X134436Y878480D01*
X134003Y876300D01*
X134436Y874120D01*
X135671Y872271D01*
X136851Y871483D01*
Y827142D01*
X135671Y826354D01*
X134436Y824505D01*
X134003Y822325D01*
X134436Y820145D01*
X135671Y818296D01*
X135832Y818189D01*
X135062Y815649D01*
X121830D01*
X100671Y836808D01*
X100948Y838200D01*
X100514Y840380D01*
X99279Y842229D01*
X97430Y843464D01*
X95250Y843897D01*
X93070Y843464D01*
X91221Y842229D01*
X89986Y840380D01*
X89552Y838200D01*
X89986Y836020D01*
X91221Y834171D01*
X93070Y832936D01*
X95250Y832503D01*
X96642Y832779D01*
X118636Y810786D01*
X118636Y810786D01*
X119560Y810168D01*
X120650Y809951D01*
X120650Y809951D01*
X152400D01*
X152400Y809951D01*
X153490Y810168D01*
X154414Y810786D01*
X169613Y825985D01*
X170717Y825770D01*
X172205Y824984D01*
X172536Y823320D01*
X173771Y821471D01*
X175620Y820236D01*
X177284Y819905D01*
X178070Y818417D01*
X178285Y817314D01*
X172842Y811871D01*
X171450Y812148D01*
X169270Y811714D01*
X167421Y810479D01*
X166186Y808630D01*
X165753Y806450D01*
X166186Y804270D01*
X167421Y802421D01*
X169270Y801186D01*
X171450Y800752D01*
X173630Y801186D01*
X175479Y802421D01*
X176714Y804270D01*
X177148Y806450D01*
X176871Y807842D01*
X217914Y848886D01*
X217914Y848886D01*
X218532Y849810D01*
X218749Y850900D01*
X218749Y850900D01*
Y862420D01*
X231775Y875446D01*
X234419Y874499D01*
X234513Y873541D01*
X226586Y865614D01*
X225968Y864690D01*
X225751Y863600D01*
X225751Y863600D01*
Y807303D01*
X223211Y805606D01*
X222250Y805798D01*
X220070Y805364D01*
X218221Y804129D01*
X216986Y802280D01*
X216553Y800100D01*
X216829Y798708D01*
X214720Y796599D01*
X117475D01*
X116385Y796382D01*
X115461Y795764D01*
X115461Y795764D01*
X99586Y779889D01*
X98968Y778965D01*
X98751Y777875D01*
X98751Y777875D01*
Y716017D01*
X97571Y715229D01*
X96336Y713380D01*
X95903Y711200D01*
X96336Y709020D01*
X97571Y707171D01*
X99420Y705936D01*
X101600Y705502D01*
X103780Y705936D01*
X105629Y707171D01*
X106864Y709020D01*
X107297Y711200D01*
X106864Y713380D01*
X105629Y715229D01*
X104449Y716017D01*
Y776695D01*
X118655Y790901D01*
X204160D01*
X205212Y788361D01*
X197122Y780270D01*
X196504Y779346D01*
X196287Y778256D01*
X196287Y778256D01*
Y725787D01*
X193747Y724425D01*
X193349Y724689D01*
Y742950D01*
X193349Y742950D01*
X193132Y744040D01*
X192514Y744964D01*
X154922Y782556D01*
X153998Y783174D01*
X152908Y783391D01*
X152908Y783391D01*
X144857D01*
X143729Y785079D01*
X141880Y786314D01*
X139700Y786748D01*
X137520Y786314D01*
X135671Y785079D01*
X134436Y783230D01*
X134003Y781050D01*
X134436Y778870D01*
X135671Y777021D01*
X137520Y775786D01*
X139700Y775352D01*
X141880Y775786D01*
X143729Y777021D01*
X144178Y777693D01*
X151728D01*
X187651Y741770D01*
Y722367D01*
X186471Y721579D01*
X185236Y719730D01*
X184802Y717550D01*
X183065Y715251D01*
X183063Y715251D01*
X180649Y717492D01*
Y719083D01*
X181829Y719871D01*
X183064Y721720D01*
X183498Y723900D01*
X183064Y726080D01*
X181829Y727929D01*
X179980Y729164D01*
X177800Y729597D01*
X175620Y729164D01*
X173771Y727929D01*
X172536Y726080D01*
X172103Y723900D01*
X172536Y721720D01*
X173771Y719871D01*
X174951Y719083D01*
Y715320D01*
X172487Y714191D01*
X164764Y721914D01*
X163840Y722532D01*
X162750Y722749D01*
X162750Y722749D01*
X148170D01*
X147080Y722532D01*
X146156Y721914D01*
X146156Y721914D01*
X140862Y716621D01*
X139470Y716898D01*
X137290Y716464D01*
X135441Y715229D01*
X134206Y713380D01*
X133772Y711200D01*
X134206Y709020D01*
X135441Y707171D01*
X137290Y705936D01*
X139470Y705502D01*
X141650Y705936D01*
X143499Y707171D01*
X144734Y709020D01*
X145167Y711200D01*
X144891Y712592D01*
X149350Y717051D01*
X153117D01*
X153315Y716826D01*
X154242Y714511D01*
X153486Y713380D01*
X153053Y711200D01*
X153486Y709020D01*
X154721Y707171D01*
X156570Y705936D01*
X158750Y705502D01*
X160142Y705779D01*
X169436Y696486D01*
X169436Y696486D01*
X170360Y695868D01*
X171450Y695651D01*
X171450Y695651D01*
X203200D01*
X203200Y695651D01*
X204290Y695868D01*
X205214Y696486D01*
X210294Y701566D01*
X210294Y701566D01*
X210912Y702490D01*
X211129Y703580D01*
X211129Y703580D01*
Y749868D01*
X212210Y751960D01*
X213669Y751960D01*
X232290D01*
Y772040D01*
X229799D01*
X229549Y774580D01*
X229690Y774608D01*
X230614Y775226D01*
X243314Y787926D01*
X243314Y787926D01*
X243932Y788850D01*
X244149Y789940D01*
X244149Y789940D01*
Y807983D01*
X245329Y808771D01*
X246564Y810620D01*
X246895Y812284D01*
X248383Y813070D01*
X249487Y813285D01*
X260676Y802095D01*
Y642021D01*
X258330Y641049D01*
X211564Y687814D01*
X210640Y688432D01*
X209550Y688649D01*
X209550Y688649D01*
X147230D01*
X129849Y706030D01*
Y716370D01*
X138308Y724829D01*
X139700Y724553D01*
X141880Y724986D01*
X143729Y726221D01*
X144964Y728070D01*
X145398Y730250D01*
X144964Y732430D01*
X143729Y734279D01*
X141880Y735514D01*
X139700Y735947D01*
X137520Y735514D01*
X135671Y734279D01*
X134436Y732430D01*
X134003Y730250D01*
X134279Y728858D01*
X126039Y720618D01*
X123499Y721670D01*
Y729070D01*
X138308Y743879D01*
X139700Y743603D01*
X141880Y744036D01*
X143729Y745271D01*
X144964Y747120D01*
X145398Y749300D01*
X144964Y751480D01*
X143729Y753329D01*
X141880Y754564D01*
X139700Y754997D01*
X137520Y754564D01*
X135671Y753329D01*
X134436Y751480D01*
X134003Y749300D01*
X134279Y747908D01*
X118636Y732264D01*
X118018Y731340D01*
X117801Y730250D01*
X117801Y730250D01*
Y705059D01*
X117801Y705059D01*
X118018Y703969D01*
X118309Y703533D01*
Y701167D01*
X118309Y701167D01*
X118526Y700077D01*
X119144Y699153D01*
X137536Y680760D01*
X136813Y677891D01*
X135671Y677129D01*
X134436Y675280D01*
X134003Y673100D01*
X134436Y670920D01*
X135671Y669071D01*
X137038Y668158D01*
X137266Y666980D01*
Y666520D01*
X137038Y665342D01*
X135671Y664429D01*
X134436Y662580D01*
X134003Y660400D01*
X134279Y659008D01*
X120688Y645416D01*
X120070Y644492D01*
X119853Y643402D01*
X119853Y643402D01*
Y590498D01*
X118673Y589710D01*
X117438Y587861D01*
X117004Y585681D01*
X117438Y583501D01*
X118673Y581652D01*
X120522Y580417D01*
X122702Y579983D01*
X124094Y580260D01*
X134868Y569486D01*
X134868Y569486D01*
X135793Y568868D01*
X136883Y568651D01*
X136883Y568651D01*
X172983D01*
X173771Y567471D01*
X175620Y566236D01*
X177800Y565802D01*
X179980Y566236D01*
X181829Y567471D01*
X182617Y568651D01*
X189320D01*
X229529Y528442D01*
X229252Y527050D01*
X229536Y525626D01*
X228971Y524174D01*
X227834Y523070D01*
X226420Y522789D01*
X224571Y521554D01*
X223336Y519705D01*
X223155Y518795D01*
X234045D01*
X234014Y518949D01*
X234579Y520401D01*
X235716Y521505D01*
X237130Y521786D01*
X238979Y523021D01*
X239511Y523818D01*
X242514Y524407D01*
X248484Y518437D01*
Y470063D01*
X246138Y469091D01*
X202039Y513189D01*
X201115Y513807D01*
X200025Y514024D01*
X200025Y514024D01*
X159930D01*
X116990Y556964D01*
X117205Y558067D01*
X117991Y559555D01*
X119655Y559886D01*
X121504Y561121D01*
X122739Y562970D01*
X122920Y563880D01*
X117475D01*
Y565150D01*
X116205D01*
Y570595D01*
X115295Y570414D01*
X113446Y569179D01*
X112211Y567330D01*
X111880Y565666D01*
X110392Y564880D01*
X109289Y564665D01*
X91749Y582205D01*
Y609600D01*
X91749Y609600D01*
X91532Y610690D01*
X90914Y611614D01*
X90914Y611614D01*
X85064Y617464D01*
X85982Y619679D01*
X86327Y622300D01*
X85982Y624921D01*
X84970Y627363D01*
X83361Y629461D01*
X81263Y631070D01*
X78821Y632082D01*
X76200Y632427D01*
X73579Y632082D01*
X71137Y631070D01*
X69039Y629461D01*
X68889Y629264D01*
X66349Y630126D01*
Y639874D01*
X68889Y640736D01*
X69039Y640539D01*
X71137Y638930D01*
X73579Y637918D01*
X76200Y637573D01*
X78821Y637918D01*
X81263Y638930D01*
X83361Y640539D01*
X84970Y642637D01*
X85982Y645079D01*
X86327Y647700D01*
X85982Y650321D01*
X84970Y652763D01*
X83361Y654861D01*
X81263Y656470D01*
X78821Y657482D01*
X76200Y657827D01*
X73579Y657482D01*
X71137Y656470D01*
X69039Y654861D01*
X68889Y654664D01*
X66349Y655527D01*
Y665274D01*
X68889Y666136D01*
X69039Y665939D01*
X71137Y664330D01*
X73579Y663318D01*
X76200Y662973D01*
X78821Y663318D01*
X81263Y664330D01*
X83361Y665939D01*
X84970Y668037D01*
X85982Y670479D01*
X86327Y673100D01*
X85982Y675721D01*
X84970Y678163D01*
X83361Y680261D01*
X81263Y681870D01*
X78821Y682882D01*
X76200Y683227D01*
X73579Y682882D01*
X71137Y681870D01*
X69039Y680261D01*
X68889Y680064D01*
X66349Y680927D01*
Y684620D01*
X71364Y689636D01*
X73579Y688718D01*
X76200Y688373D01*
X78821Y688718D01*
X81263Y689730D01*
X83361Y691339D01*
X84970Y693437D01*
X85982Y695879D01*
X86327Y698500D01*
X85982Y701121D01*
X84970Y703563D01*
X83361Y705661D01*
X81263Y707270D01*
X78821Y708282D01*
X76200Y708627D01*
X73579Y708282D01*
X71364Y707364D01*
X66349Y712380D01*
Y716074D01*
X68889Y716936D01*
X69039Y716739D01*
X71137Y715130D01*
X73579Y714118D01*
X76200Y713773D01*
X78821Y714118D01*
X81263Y715130D01*
X83361Y716739D01*
X84970Y718837D01*
X85982Y721279D01*
X86327Y723900D01*
X85982Y726521D01*
X84970Y728963D01*
X83361Y731061D01*
X81263Y732670D01*
X78821Y733682D01*
X76200Y734027D01*
X73579Y733682D01*
X71137Y732670D01*
X69039Y731061D01*
X68889Y730864D01*
X66349Y731727D01*
Y741473D01*
X68889Y742336D01*
X69039Y742139D01*
X71137Y740530D01*
X73579Y739518D01*
X76200Y739173D01*
X78821Y739518D01*
X81263Y740530D01*
X83361Y742139D01*
X84970Y744237D01*
X85982Y746679D01*
X86327Y749300D01*
X85982Y751921D01*
X84970Y754363D01*
X83361Y756461D01*
X81263Y758070D01*
X78821Y759082D01*
X76200Y759427D01*
X73579Y759082D01*
X71137Y758070D01*
X69039Y756461D01*
X68889Y756264D01*
X66349Y757126D01*
Y762000D01*
X66349Y762000D01*
X66132Y763090D01*
X65514Y764014D01*
X65514Y764014D01*
X59664Y769865D01*
X60582Y772079D01*
X60927Y774700D01*
X60582Y777321D01*
X59570Y779763D01*
X57961Y781861D01*
X55863Y783470D01*
X53421Y784482D01*
X50800Y784827D01*
X48179Y784482D01*
X45737Y783470D01*
X43639Y781861D01*
X42030Y779763D01*
X41018Y777321D01*
X40673Y774700D01*
X41018Y772079D01*
X42030Y769637D01*
X43639Y767539D01*
X45737Y765930D01*
X48179Y764918D01*
X50800Y764573D01*
X53421Y764918D01*
X55635Y765836D01*
X60651Y760820D01*
Y757126D01*
X58111Y756264D01*
X57961Y756461D01*
X55863Y758070D01*
X53421Y759082D01*
X50800Y759427D01*
X48179Y759082D01*
X45737Y758070D01*
X43639Y756461D01*
X42030Y754363D01*
X41018Y751921D01*
X40673Y749300D01*
X41018Y746679D01*
X42030Y744237D01*
X43639Y742139D01*
X45737Y740530D01*
X48179Y739518D01*
X50800Y739173D01*
X53421Y739518D01*
X55863Y740530D01*
X57961Y742139D01*
X58111Y742336D01*
X60651Y741473D01*
Y731727D01*
X58111Y730864D01*
X57961Y731061D01*
X55863Y732670D01*
X53421Y733682D01*
X50800Y734027D01*
X48179Y733682D01*
X45737Y732670D01*
X43639Y731061D01*
X42030Y728963D01*
X41018Y726521D01*
X40673Y723900D01*
X41018Y721279D01*
X42030Y718837D01*
X43639Y716739D01*
X45737Y715130D01*
X48179Y714118D01*
X50800Y713773D01*
X53421Y714118D01*
X55863Y715130D01*
X57961Y716739D01*
X58111Y716936D01*
X60651Y716074D01*
Y711200D01*
X60651Y711200D01*
X60868Y710110D01*
X61486Y709186D01*
X67336Y703335D01*
X66418Y701121D01*
X66073Y698500D01*
X66418Y695879D01*
X67336Y693664D01*
X61486Y687814D01*
X60868Y686890D01*
X60651Y685800D01*
X60651Y685800D01*
Y680927D01*
X58111Y680064D01*
X57961Y680261D01*
X55863Y681870D01*
X53421Y682882D01*
X52070Y683059D01*
Y673100D01*
X50800D01*
Y671830D01*
X40841D01*
X41018Y670479D01*
X42030Y668037D01*
X42797Y667037D01*
X41038Y665158D01*
X40280Y665664D01*
X38100Y666097D01*
X35920Y665664D01*
X34071Y664429D01*
X32836Y662580D01*
X32403Y660400D01*
X32679Y659008D01*
X30789Y657117D01*
X28249Y658170D01*
Y695898D01*
X30480Y697883D01*
X32660Y698316D01*
X34509Y699551D01*
X35744Y701400D01*
X36177Y703580D01*
X35744Y705760D01*
X34509Y707609D01*
X32660Y708844D01*
X30480Y709277D01*
X28300Y708844D01*
X26451Y707609D01*
X25216Y705760D01*
X24892Y704129D01*
X24439Y703763D01*
X21899Y704976D01*
X21899Y704977D01*
Y805270D01*
X38889Y822261D01*
X41379Y822008D01*
X42030Y820437D01*
X43639Y818339D01*
X45737Y816730D01*
X48179Y815718D01*
X50800Y815373D01*
X53421Y815718D01*
X55863Y816730D01*
X57961Y818339D01*
X59570Y820437D01*
X60582Y822879D01*
X60927Y825500D01*
X60582Y828121D01*
X59570Y830563D01*
X57961Y832661D01*
X55863Y834270D01*
X53421Y835282D01*
X50800Y835627D01*
X48179Y835282D01*
X45737Y834270D01*
X43639Y832661D01*
X42030Y830563D01*
X41018Y828121D01*
X41009Y828052D01*
X37803D01*
X37803Y828052D01*
X36713Y827835D01*
X35789Y827217D01*
X35789Y827217D01*
X19680Y811109D01*
X16924Y811945D01*
X16750Y812821D01*
X45964Y842036D01*
X48179Y841118D01*
X50800Y840773D01*
X53421Y841118D01*
X55863Y842130D01*
X57961Y843739D01*
X59570Y845837D01*
X60582Y848279D01*
X60927Y850900D01*
X60582Y853521D01*
X59570Y855963D01*
X57961Y858061D01*
X55863Y859670D01*
X53421Y860682D01*
X50800Y861027D01*
X48179Y860682D01*
X45737Y859670D01*
X43639Y858061D01*
X42030Y855963D01*
X41018Y853521D01*
X40673Y850900D01*
X41018Y848279D01*
X41936Y846065D01*
X10686Y814814D01*
X10068Y813890D01*
X9851Y812800D01*
X9851Y812800D01*
Y228600D01*
X9851Y228600D01*
X10068Y227510D01*
X10686Y226586D01*
X41936Y195336D01*
X41018Y193121D01*
X40673Y190500D01*
X41018Y187879D01*
X42030Y185437D01*
X43639Y183339D01*
X45737Y181730D01*
X48179Y180718D01*
X50800Y180373D01*
X53421Y180718D01*
X55863Y181730D01*
X57961Y183339D01*
X59570Y185437D01*
X60582Y187879D01*
X60927Y190500D01*
X60582Y193121D01*
X59570Y195563D01*
X57961Y197661D01*
X55863Y199270D01*
X53421Y200282D01*
X50800Y200627D01*
X48179Y200282D01*
X45964Y199364D01*
X15549Y229780D01*
Y294330D01*
X18089Y295382D01*
X41936Y271535D01*
X41018Y269321D01*
X40673Y266700D01*
X41018Y264079D01*
X42030Y261637D01*
X43639Y259539D01*
X45737Y257930D01*
X48179Y256918D01*
X50800Y256573D01*
X53421Y256918D01*
X55863Y257930D01*
X57961Y259539D01*
X59570Y261637D01*
X60582Y264079D01*
X60927Y266700D01*
X60582Y269321D01*
X59570Y271763D01*
X57961Y273861D01*
X55863Y275470D01*
X53421Y276482D01*
X50800Y276827D01*
X48179Y276482D01*
X45964Y275564D01*
X21899Y299630D01*
Y491180D01*
X24439Y492233D01*
X36086Y480586D01*
X36086Y480586D01*
X37010Y479968D01*
X38100Y479751D01*
X42973D01*
X43836Y477211D01*
X43639Y477061D01*
X42030Y474963D01*
X41018Y472521D01*
X40673Y469900D01*
X41018Y467279D01*
X42030Y464837D01*
X43639Y462739D01*
X45737Y461130D01*
X48179Y460118D01*
X50800Y459773D01*
X53421Y460118D01*
X55863Y461130D01*
X57961Y462739D01*
X59570Y464837D01*
X60582Y467279D01*
X60927Y469900D01*
X60582Y472521D01*
X59570Y474963D01*
X57961Y477061D01*
X57764Y477211D01*
X58626Y479751D01*
X62320D01*
X67336Y474735D01*
X66418Y472521D01*
X66073Y469900D01*
X66418Y467279D01*
X67430Y464837D01*
X69039Y462739D01*
X71137Y461130D01*
X73579Y460118D01*
X76200Y459773D01*
X78821Y460118D01*
X81263Y461130D01*
X83361Y462739D01*
X83511Y462936D01*
X86051Y462074D01*
Y458380D01*
X81035Y453364D01*
X78821Y454282D01*
X76200Y454627D01*
X73579Y454282D01*
X71137Y453270D01*
X69039Y451661D01*
X67430Y449563D01*
X66418Y447121D01*
X66073Y444500D01*
X66418Y441879D01*
X67336Y439664D01*
X61486Y433814D01*
X60868Y432890D01*
X60651Y431800D01*
X60651Y431800D01*
Y426926D01*
X58111Y426064D01*
X57961Y426261D01*
X55863Y427870D01*
X53421Y428882D01*
X50800Y429227D01*
X48179Y428882D01*
X45737Y427870D01*
X43639Y426261D01*
X42030Y424163D01*
X41018Y421721D01*
X40673Y419100D01*
X41018Y416479D01*
X42030Y414037D01*
X43639Y411939D01*
X45737Y410330D01*
X48179Y409318D01*
X50800Y408973D01*
X53421Y409318D01*
X55863Y410330D01*
X57961Y411939D01*
X58111Y412136D01*
X60651Y411273D01*
Y401526D01*
X58111Y400664D01*
X57961Y400861D01*
X55863Y402470D01*
X53421Y403482D01*
X50800Y403827D01*
X48179Y403482D01*
X45737Y402470D01*
X43639Y400861D01*
X42030Y398763D01*
X41018Y396321D01*
X40673Y393700D01*
X41018Y391079D01*
X42030Y388637D01*
X43639Y386539D01*
X45737Y384930D01*
X48179Y383918D01*
X50800Y383573D01*
X53421Y383918D01*
X55863Y384930D01*
X57961Y386539D01*
X58111Y386736D01*
X60651Y385873D01*
Y376127D01*
X58111Y375264D01*
X57961Y375461D01*
X55863Y377070D01*
X53421Y378082D01*
X50800Y378427D01*
X48179Y378082D01*
X45737Y377070D01*
X43639Y375461D01*
X42030Y373363D01*
X41018Y370921D01*
X40673Y368300D01*
X41018Y365679D01*
X41936Y363465D01*
X29736Y351264D01*
X29118Y350340D01*
X28901Y349250D01*
X28901Y349250D01*
Y335017D01*
X27721Y334229D01*
X26486Y332380D01*
X26052Y330200D01*
X26486Y328020D01*
X27721Y326171D01*
X29570Y324936D01*
X31750Y324502D01*
X33930Y324936D01*
X35779Y326171D01*
X37014Y328020D01*
X37448Y330200D01*
X37014Y332380D01*
X35779Y334229D01*
X34599Y335017D01*
Y348070D01*
X45964Y359436D01*
X48179Y358518D01*
X50800Y358173D01*
X53421Y358518D01*
X55863Y359530D01*
X57961Y361139D01*
X58111Y361336D01*
X60651Y360474D01*
Y350727D01*
X58111Y349864D01*
X57961Y350061D01*
X55863Y351670D01*
X53421Y352682D01*
X50800Y353027D01*
X48179Y352682D01*
X45737Y351670D01*
X43639Y350061D01*
X42030Y347963D01*
X41018Y345521D01*
X40673Y342900D01*
X41018Y340279D01*
X42030Y337837D01*
X43639Y335739D01*
X45737Y334130D01*
X48179Y333118D01*
X50800Y332773D01*
X53421Y333118D01*
X55863Y334130D01*
X57961Y335739D01*
X58111Y335936D01*
X60651Y335074D01*
Y330200D01*
X60651Y330200D01*
X60868Y329110D01*
X61486Y328186D01*
X67336Y322336D01*
X66418Y320121D01*
X66073Y317500D01*
X66418Y314879D01*
X67430Y312437D01*
X69039Y310339D01*
X71137Y308730D01*
X73579Y307718D01*
X76200Y307373D01*
X78821Y307718D01*
X81263Y308730D01*
X83361Y310339D01*
X84970Y312437D01*
X85982Y314879D01*
X86327Y317500D01*
X85982Y320121D01*
X84970Y322563D01*
X83361Y324661D01*
X81263Y326270D01*
X78821Y327282D01*
X76200Y327627D01*
X73579Y327282D01*
X71364Y326364D01*
X66349Y331380D01*
Y335074D01*
X68889Y335936D01*
X69039Y335739D01*
X71137Y334130D01*
X73579Y333118D01*
X76200Y332773D01*
X78821Y333118D01*
X81263Y334130D01*
X83361Y335739D01*
X84970Y337837D01*
X85982Y340279D01*
X86327Y342900D01*
X85982Y345521D01*
X84970Y347963D01*
X83361Y350061D01*
X81263Y351670D01*
X78821Y352682D01*
X76200Y353027D01*
X73579Y352682D01*
X71137Y351670D01*
X69039Y350061D01*
X68889Y349864D01*
X66349Y350727D01*
Y360474D01*
X68889Y361336D01*
X69039Y361139D01*
X71137Y359530D01*
X73579Y358518D01*
X76200Y358173D01*
X78821Y358518D01*
X81263Y359530D01*
X83361Y361139D01*
X84970Y363237D01*
X85982Y365679D01*
X86327Y368300D01*
X85982Y370921D01*
X84970Y373363D01*
X83361Y375461D01*
X81263Y377070D01*
X78821Y378082D01*
X76200Y378427D01*
X73579Y378082D01*
X71137Y377070D01*
X69039Y375461D01*
X68889Y375264D01*
X66349Y376127D01*
Y385873D01*
X68889Y386736D01*
X69039Y386539D01*
X71137Y384930D01*
X73579Y383918D01*
X76200Y383573D01*
X78821Y383918D01*
X81263Y384930D01*
X83361Y386539D01*
X84970Y388637D01*
X85982Y391079D01*
X86327Y393700D01*
X85982Y396321D01*
X84970Y398763D01*
X83361Y400861D01*
X81263Y402470D01*
X78821Y403482D01*
X76200Y403827D01*
X73579Y403482D01*
X71137Y402470D01*
X69039Y400861D01*
X68889Y400664D01*
X66349Y401526D01*
Y411273D01*
X68889Y412136D01*
X69039Y411939D01*
X71137Y410330D01*
X73579Y409318D01*
X76200Y408973D01*
X78821Y409318D01*
X81263Y410330D01*
X83361Y411939D01*
X84970Y414037D01*
X85982Y416479D01*
X86327Y419100D01*
X85982Y421721D01*
X85064Y423936D01*
X90239Y429110D01*
X91342Y428895D01*
X92830Y428109D01*
X93161Y426445D01*
X94396Y424596D01*
X95576Y423808D01*
Y365125D01*
X95576Y365125D01*
X95793Y364035D01*
X96411Y363111D01*
X128669Y330853D01*
X128669Y330853D01*
X129593Y330235D01*
X130683Y330018D01*
X134900D01*
X135671Y327479D01*
X134436Y325630D01*
X134003Y323450D01*
X134436Y321270D01*
X135671Y319422D01*
X137520Y318186D01*
X139700Y317753D01*
X142112Y315912D01*
X142299Y314750D01*
X142175Y314479D01*
X112517Y284821D01*
X111125Y285098D01*
X108945Y284664D01*
X107096Y283429D01*
X106308Y282249D01*
X88900D01*
X88900Y282249D01*
X87810Y282032D01*
X86886Y281414D01*
X86886Y281414D01*
X81035Y275564D01*
X78821Y276482D01*
X76200Y276827D01*
X73579Y276482D01*
X71137Y275470D01*
X69039Y273861D01*
X67430Y271763D01*
X66418Y269321D01*
X66073Y266700D01*
X66418Y264079D01*
X67430Y261637D01*
X69039Y259539D01*
X71137Y257930D01*
X73579Y256918D01*
X76200Y256573D01*
X78821Y256918D01*
X81263Y257930D01*
X83361Y259539D01*
X84970Y261637D01*
X85982Y264079D01*
X86327Y266700D01*
X85982Y269321D01*
X85064Y271535D01*
X90080Y276551D01*
X106308D01*
X107096Y275371D01*
X108945Y274136D01*
X110609Y273805D01*
X111395Y272317D01*
X111610Y271213D01*
X99586Y259189D01*
X98968Y258265D01*
X98751Y257175D01*
X98751Y257175D01*
Y166280D01*
X81035Y148564D01*
X78821Y149482D01*
X76200Y149827D01*
X73579Y149482D01*
X71137Y148470D01*
X69039Y146861D01*
X68889Y146664D01*
X66349Y147527D01*
Y152400D01*
X66349Y152400D01*
X66132Y153490D01*
X65514Y154414D01*
X65514Y154414D01*
X59664Y160264D01*
X60582Y162479D01*
X60927Y165100D01*
X60582Y167721D01*
X59570Y170163D01*
X57961Y172261D01*
X55863Y173870D01*
X53421Y174882D01*
X50800Y175227D01*
X48179Y174882D01*
X45737Y173870D01*
X43639Y172261D01*
X42030Y170163D01*
X41018Y167721D01*
X40673Y165100D01*
X41018Y162479D01*
X42030Y160037D01*
X43639Y157939D01*
X45737Y156330D01*
X48179Y155318D01*
X50800Y154973D01*
X53421Y155318D01*
X55635Y156236D01*
X60651Y151220D01*
Y147527D01*
X58111Y146664D01*
X57961Y146861D01*
X55863Y148470D01*
X53421Y149482D01*
X50800Y149827D01*
X48179Y149482D01*
X45737Y148470D01*
X43639Y146861D01*
X42030Y144763D01*
X41018Y142321D01*
X40673Y139700D01*
X41018Y137079D01*
X42030Y134637D01*
X43639Y132539D01*
X45737Y130930D01*
X48179Y129918D01*
X50800Y129573D01*
X53421Y129918D01*
X55863Y130930D01*
X57961Y132539D01*
X58169Y132811D01*
X60868Y132260D01*
X61486Y131336D01*
X67836Y124986D01*
X67836Y124986D01*
X68760Y124368D01*
X69311Y121669D01*
X69039Y121461D01*
X67430Y119363D01*
X66418Y116921D01*
X66073Y114300D01*
X66418Y111679D01*
X67430Y109237D01*
X69039Y107139D01*
X71137Y105530D01*
X73579Y104518D01*
X76200Y104173D01*
X78821Y104518D01*
X81263Y105530D01*
X83361Y107139D01*
X84970Y109237D01*
X85982Y111679D01*
X86327Y114300D01*
X85982Y116921D01*
X84970Y119363D01*
X83361Y121461D01*
X83164Y121611D01*
X84026Y124151D01*
X144870D01*
X197779Y71242D01*
X197502Y69850D01*
X197936Y67670D01*
X199171Y65821D01*
X200351Y65033D01*
Y58330D01*
X179192Y37171D01*
X177800Y37448D01*
X175620Y37014D01*
X173771Y35779D01*
X172536Y33930D01*
X172103Y31750D01*
X172536Y29570D01*
X173771Y27721D01*
X175620Y26486D01*
X177800Y26052D01*
X179980Y26486D01*
X181829Y27721D01*
X183064Y29570D01*
X183498Y31750D01*
X183221Y33142D01*
X205214Y55136D01*
X205214Y55136D01*
X205832Y56060D01*
X206049Y57150D01*
X206049Y57150D01*
Y65033D01*
X207229Y65821D01*
X208464Y67670D01*
X208897Y69850D01*
X208464Y72030D01*
X207229Y73879D01*
X205380Y75114D01*
X203200Y75547D01*
X201808Y75271D01*
X150079Y127000D01*
X167114Y144036D01*
X167114Y144036D01*
X167732Y144960D01*
X167949Y146050D01*
Y147583D01*
X169129Y148371D01*
X170364Y150220D01*
X170798Y152400D01*
X170364Y154580D01*
X169129Y156429D01*
X167280Y157664D01*
X165100Y158097D01*
X162920Y157664D01*
X161071Y156429D01*
X159836Y154580D01*
X159403Y152400D01*
X159836Y150220D01*
X161071Y148371D01*
X160632Y145610D01*
X152035Y137014D01*
X149629Y138200D01*
X149659Y138430D01*
X129741D01*
X129918Y137079D01*
X130930Y134637D01*
X132539Y132539D01*
X132736Y132389D01*
X131874Y129849D01*
X124340D01*
Y149740D01*
X104260D01*
Y129849D01*
X84026D01*
X83164Y132389D01*
X83361Y132539D01*
X84970Y134637D01*
X85982Y137079D01*
X86327Y139700D01*
X85982Y142321D01*
X85064Y144536D01*
X103614Y163086D01*
X103614Y163086D01*
X104232Y164010D01*
X104449Y165100D01*
X104449Y165100D01*
Y255995D01*
X160764Y312311D01*
X160764Y312311D01*
X161382Y313235D01*
X161599Y314325D01*
X161599Y314325D01*
Y320675D01*
X161599Y320675D01*
X161382Y321765D01*
X160764Y322689D01*
X155976Y327478D01*
X157028Y330018D01*
X161253D01*
X169286Y321985D01*
X168563Y319116D01*
X167421Y318354D01*
X166186Y316505D01*
X165753Y314325D01*
X166029Y312933D01*
X137686Y284589D01*
X137068Y283665D01*
X136851Y282575D01*
X136851Y282575D01*
Y188967D01*
X135671Y188179D01*
X134436Y186330D01*
X134003Y184150D01*
X134436Y181970D01*
X135671Y180121D01*
X137520Y178886D01*
X139700Y178452D01*
X141880Y178886D01*
X143729Y180121D01*
X144964Y181970D01*
X145398Y184150D01*
X144964Y186330D01*
X143729Y188179D01*
X142549Y188967D01*
Y281395D01*
X170058Y308904D01*
X171450Y308627D01*
X173630Y309061D01*
X175479Y310296D01*
X175586Y310457D01*
X178126Y309687D01*
Y265167D01*
X176946Y264379D01*
X175711Y262530D01*
X175278Y260350D01*
X175711Y258170D01*
X176946Y256321D01*
X178795Y255086D01*
X180975Y254653D01*
X183155Y255086D01*
X185004Y256321D01*
X186239Y258170D01*
X186672Y260350D01*
X186239Y262530D01*
X185004Y264379D01*
X183824Y265167D01*
Y312951D01*
X186364Y314004D01*
X194485Y305882D01*
Y285266D01*
X194485Y285266D01*
X194702Y284176D01*
X195320Y283252D01*
X229529Y249042D01*
X229252Y247650D01*
X229686Y245470D01*
X230921Y243621D01*
X232770Y242386D01*
X234950Y241952D01*
X237130Y242386D01*
X238979Y243621D01*
X240214Y245470D01*
X240648Y247650D01*
X240214Y249830D01*
X238979Y251679D01*
X237612Y252592D01*
X237384Y253770D01*
Y254230D01*
X237612Y255408D01*
X238979Y256321D01*
X240214Y258170D01*
X240545Y259834D01*
X242033Y260620D01*
X243137Y260835D01*
X251986Y251986D01*
X251986Y251986D01*
X252910Y251368D01*
X254000Y251151D01*
X311150D01*
X311150Y251151D01*
X312240Y251368D01*
X313164Y251986D01*
X335389Y274211D01*
X335389Y274211D01*
X336007Y275135D01*
X336224Y276225D01*
X336224Y276225D01*
Y377734D01*
X336224Y377734D01*
X336007Y378824D01*
X335589Y379450D01*
X335897Y381000D01*
X335464Y383180D01*
X334229Y385029D01*
X333049Y385817D01*
Y431800D01*
X332832Y432890D01*
X332214Y433814D01*
X332214Y433814D01*
X297521Y468508D01*
X297798Y469900D01*
X297364Y472080D01*
X296129Y473929D01*
X294280Y475164D01*
X292100Y475597D01*
X289920Y475164D01*
X288071Y473929D01*
X286836Y472080D01*
X286572Y470749D01*
X284273Y469767D01*
X283980Y469749D01*
X277949Y475780D01*
Y700033D01*
X279129Y700821D01*
X280364Y702670D01*
X280798Y704850D01*
X280364Y707030D01*
X279129Y708879D01*
X277949Y709667D01*
Y804400D01*
X277949Y804400D01*
X277732Y805490D01*
X277114Y806414D01*
X277114Y806414D01*
X250524Y833005D01*
X251496Y835351D01*
X266700D01*
X266700Y835351D01*
X267790Y835568D01*
X268714Y836186D01*
X309758Y877229D01*
X311150Y876953D01*
X313330Y877386D01*
X315179Y878621D01*
X316414Y880470D01*
X316847Y882650D01*
X316414Y884830D01*
X315179Y886679D01*
X313330Y887914D01*
X311150Y888347D01*
X309758Y888071D01*
X303639Y894189D01*
X302715Y894807D01*
X301625Y895024D01*
D02*
G37*
G36*
X54550Y886463D02*
X52070D01*
Y877570D01*
X60963D01*
Y880050D01*
X60475Y882504D01*
X59085Y884585D01*
X57004Y885975D01*
X54550Y886463D01*
D02*
G37*
G36*
X49530D02*
X47050D01*
X44596Y885975D01*
X42515Y884585D01*
X41125Y882504D01*
X40637Y880050D01*
Y877570D01*
X49530D01*
Y886463D01*
D02*
G37*
G36*
X76200Y886427D02*
X73579Y886082D01*
X71137Y885070D01*
X69039Y883461D01*
X67430Y881363D01*
X66418Y878921D01*
X66073Y876300D01*
X66418Y873679D01*
X67430Y871237D01*
X69039Y869139D01*
X71137Y867530D01*
X73579Y866518D01*
X76200Y866173D01*
X78821Y866518D01*
X81263Y867530D01*
X83361Y869139D01*
X84970Y871237D01*
X85982Y873679D01*
X86327Y876300D01*
X85982Y878921D01*
X84970Y881363D01*
X83361Y883461D01*
X81263Y885070D01*
X78821Y886082D01*
X76200Y886427D01*
D02*
G37*
G36*
X60963Y875030D02*
X52070D01*
Y866137D01*
X54550D01*
X57004Y866625D01*
X59085Y868015D01*
X60475Y870096D01*
X60963Y872550D01*
Y875030D01*
D02*
G37*
G36*
X49530D02*
X40637D01*
Y872550D01*
X41125Y870096D01*
X42515Y868015D01*
X44596Y866625D01*
X47050Y866137D01*
X49530D01*
Y875030D01*
D02*
G37*
G36*
X76200Y861027D02*
X73579Y860682D01*
X71137Y859670D01*
X69039Y858061D01*
X67430Y855963D01*
X66418Y853521D01*
X66073Y850900D01*
X66418Y848279D01*
X67430Y845837D01*
X69039Y843739D01*
X71137Y842130D01*
X73579Y841118D01*
X76200Y840773D01*
X78821Y841118D01*
X81263Y842130D01*
X83361Y843739D01*
X84970Y845837D01*
X85982Y848279D01*
X86327Y850900D01*
X85982Y853521D01*
X84970Y855963D01*
X83361Y858061D01*
X81263Y859670D01*
X78821Y860682D01*
X76200Y861027D01*
D02*
G37*
G36*
X77470Y835459D02*
Y826770D01*
X86159D01*
X85982Y828121D01*
X84970Y830563D01*
X83361Y832661D01*
X81263Y834270D01*
X78821Y835282D01*
X77470Y835459D01*
D02*
G37*
G36*
X74930D02*
X73579Y835282D01*
X71137Y834270D01*
X69039Y832661D01*
X67430Y830563D01*
X66418Y828121D01*
X66241Y826770D01*
X74930D01*
Y835459D01*
D02*
G37*
G36*
X86159Y824230D02*
X77470D01*
Y815541D01*
X78821Y815718D01*
X81263Y816730D01*
X83361Y818339D01*
X84970Y820437D01*
X85982Y822879D01*
X86159Y824230D01*
D02*
G37*
G36*
X74930D02*
X66241D01*
X66418Y822879D01*
X67430Y820437D01*
X69039Y818339D01*
X71137Y816730D01*
X73579Y815718D01*
X74930Y815541D01*
Y824230D01*
D02*
G37*
G36*
X76200Y810227D02*
X73579Y809882D01*
X71137Y808870D01*
X69039Y807261D01*
X67430Y805163D01*
X66418Y802721D01*
X66073Y800100D01*
X66418Y797479D01*
X67430Y795037D01*
X69039Y792939D01*
X71137Y791330D01*
X73579Y790318D01*
X76200Y789973D01*
X78821Y790318D01*
X81263Y791330D01*
X83361Y792939D01*
X84970Y795037D01*
X85982Y797479D01*
X86327Y800100D01*
X85982Y802721D01*
X84970Y805163D01*
X83361Y807261D01*
X81263Y808870D01*
X78821Y809882D01*
X76200Y810227D01*
D02*
G37*
G36*
X50800D02*
X48179Y809882D01*
X45737Y808870D01*
X43639Y807261D01*
X42030Y805163D01*
X41018Y802721D01*
X40673Y800100D01*
X41018Y797479D01*
X42030Y795037D01*
X43639Y792939D01*
X45737Y791330D01*
X48179Y790318D01*
X50800Y789973D01*
X53421Y790318D01*
X55863Y791330D01*
X57961Y792939D01*
X59570Y795037D01*
X60582Y797479D01*
X60927Y800100D01*
X60582Y802721D01*
X59570Y805163D01*
X57961Y807261D01*
X55863Y808870D01*
X53421Y809882D01*
X50800Y810227D01*
D02*
G37*
G36*
X76200Y784827D02*
X73579Y784482D01*
X71137Y783470D01*
X69039Y781861D01*
X67430Y779763D01*
X66418Y777321D01*
X66073Y774700D01*
X66418Y772079D01*
X67430Y769637D01*
X69039Y767539D01*
X71137Y765930D01*
X73579Y764918D01*
X76200Y764573D01*
X78821Y764918D01*
X81263Y765930D01*
X83361Y767539D01*
X84970Y769637D01*
X85982Y772079D01*
X86327Y774700D01*
X85982Y777321D01*
X84970Y779763D01*
X83361Y781861D01*
X81263Y783470D01*
X78821Y784482D01*
X76200Y784827D01*
D02*
G37*
G36*
X247650Y772127D02*
X245029Y771782D01*
X242587Y770770D01*
X240489Y769161D01*
X238880Y767063D01*
X237868Y764621D01*
X237523Y762000D01*
X237868Y759379D01*
X238880Y756937D01*
X240489Y754839D01*
X242587Y753230D01*
X245029Y752218D01*
X247650Y751873D01*
X250271Y752218D01*
X252713Y753230D01*
X254811Y754839D01*
X256420Y756937D01*
X257432Y759379D01*
X257777Y762000D01*
X257432Y764621D01*
X256420Y767063D01*
X254811Y769161D01*
X252713Y770770D01*
X250271Y771782D01*
X247650Y772127D01*
D02*
G37*
G36*
X50800Y708627D02*
X48179Y708282D01*
X45737Y707270D01*
X43639Y705661D01*
X42030Y703563D01*
X41018Y701121D01*
X40673Y698500D01*
X41018Y695879D01*
X42030Y693437D01*
X43639Y691339D01*
X45737Y689730D01*
X48179Y688718D01*
X50800Y688373D01*
X53421Y688718D01*
X55863Y689730D01*
X57961Y691339D01*
X59570Y693437D01*
X60582Y695879D01*
X60927Y698500D01*
X60582Y701121D01*
X59570Y703563D01*
X57961Y705661D01*
X55863Y707270D01*
X53421Y708282D01*
X50800Y708627D01*
D02*
G37*
G36*
X49530Y683059D02*
X48179Y682882D01*
X45737Y681870D01*
X43639Y680261D01*
X42030Y678163D01*
X41018Y675721D01*
X40841Y674370D01*
X49530D01*
Y683059D01*
D02*
G37*
G36*
X337820Y587809D02*
Y579120D01*
X346509D01*
X346332Y580471D01*
X345320Y582913D01*
X343711Y585011D01*
X341613Y586620D01*
X339171Y587632D01*
X337820Y587809D01*
D02*
G37*
G36*
X335280D02*
X333929Y587632D01*
X331487Y586620D01*
X329389Y585011D01*
X327780Y582913D01*
X326768Y580471D01*
X326591Y579120D01*
X335280D01*
Y587809D01*
D02*
G37*
G36*
X346509Y576580D02*
X337820D01*
Y567891D01*
X339171Y568068D01*
X341613Y569080D01*
X343711Y570689D01*
X345320Y572787D01*
X346332Y575229D01*
X346509Y576580D01*
D02*
G37*
G36*
X335280D02*
X326591D01*
X326768Y575229D01*
X327780Y572787D01*
X329389Y570689D01*
X331487Y569080D01*
X333929Y568068D01*
X335280Y567891D01*
Y576580D01*
D02*
G37*
G36*
X321190Y587890D02*
X301110D01*
Y567810D01*
X321190D01*
Y587890D01*
D02*
G37*
G36*
X118745Y570595D02*
Y566420D01*
X122920D01*
X122739Y567330D01*
X121504Y569179D01*
X119655Y570414D01*
X118745Y570595D01*
D02*
G37*
G36*
X234045Y516255D02*
X229870D01*
Y512080D01*
X230780Y512261D01*
X232629Y513496D01*
X233864Y515345D01*
X234045Y516255D01*
D02*
G37*
G36*
X227330D02*
X223155D01*
X223336Y515345D01*
X224571Y513496D01*
X226420Y512261D01*
X227330Y512080D01*
Y516255D01*
D02*
G37*
G36*
X50800Y454627D02*
X48179Y454282D01*
X45737Y453270D01*
X43639Y451661D01*
X42030Y449563D01*
X41018Y447121D01*
X40673Y444500D01*
X41018Y441879D01*
X42030Y439437D01*
X43639Y437339D01*
X45737Y435730D01*
X48179Y434718D01*
X50800Y434373D01*
X53421Y434718D01*
X55863Y435730D01*
X57961Y437339D01*
X59570Y439437D01*
X60582Y441879D01*
X60927Y444500D01*
X60582Y447121D01*
X59570Y449563D01*
X57961Y451661D01*
X55863Y453270D01*
X53421Y454282D01*
X50800Y454627D01*
D02*
G37*
G36*
X347345Y329295D02*
Y325120D01*
X351520D01*
X351339Y326030D01*
X350104Y327879D01*
X348255Y329114D01*
X347345Y329295D01*
D02*
G37*
G36*
X344805D02*
X343895Y329114D01*
X342046Y327879D01*
X340811Y326030D01*
X340630Y325120D01*
X344805D01*
Y329295D01*
D02*
G37*
G36*
X351520Y322580D02*
X347345D01*
Y318405D01*
X348255Y318586D01*
X350104Y319821D01*
X351339Y321670D01*
X351520Y322580D01*
D02*
G37*
G36*
X344805D02*
X340630D01*
X340811Y321670D01*
X342046Y319821D01*
X343895Y318586D01*
X344805Y318405D01*
Y322580D01*
D02*
G37*
G36*
X50800Y327627D02*
X48179Y327282D01*
X45737Y326270D01*
X43639Y324661D01*
X42030Y322563D01*
X41018Y320121D01*
X40673Y317500D01*
X41018Y314879D01*
X42030Y312437D01*
X43639Y310339D01*
X45737Y308730D01*
X48179Y307718D01*
X50800Y307373D01*
X53421Y307718D01*
X55863Y308730D01*
X57961Y310339D01*
X59570Y312437D01*
X60582Y314879D01*
X60927Y317500D01*
X60582Y320121D01*
X59570Y322563D01*
X57961Y324661D01*
X55863Y326270D01*
X53421Y327282D01*
X50800Y327627D01*
D02*
G37*
G36*
X76200Y302227D02*
X73579Y301882D01*
X71137Y300870D01*
X69039Y299261D01*
X67430Y297163D01*
X66418Y294721D01*
X66073Y292100D01*
X66418Y289479D01*
X67430Y287037D01*
X69039Y284939D01*
X71137Y283330D01*
X73579Y282318D01*
X76200Y281973D01*
X78821Y282318D01*
X81263Y283330D01*
X83361Y284939D01*
X84970Y287037D01*
X85982Y289479D01*
X86327Y292100D01*
X85982Y294721D01*
X84970Y297163D01*
X83361Y299261D01*
X81263Y300870D01*
X78821Y301882D01*
X76200Y302227D01*
D02*
G37*
G36*
X50800D02*
X48179Y301882D01*
X45737Y300870D01*
X43639Y299261D01*
X42030Y297163D01*
X41018Y294721D01*
X40673Y292100D01*
X41018Y289479D01*
X42030Y287037D01*
X43639Y284939D01*
X45737Y283330D01*
X48179Y282318D01*
X50800Y281973D01*
X53421Y282318D01*
X55863Y283330D01*
X57961Y284939D01*
X59570Y287037D01*
X60582Y289479D01*
X60927Y292100D01*
X60582Y294721D01*
X59570Y297163D01*
X57961Y299261D01*
X55863Y300870D01*
X53421Y301882D01*
X50800Y302227D01*
D02*
G37*
G36*
X76200Y251427D02*
X73579Y251082D01*
X71137Y250070D01*
X69039Y248461D01*
X67430Y246363D01*
X66418Y243921D01*
X66073Y241300D01*
X66418Y238679D01*
X67430Y236237D01*
X69039Y234139D01*
X71137Y232530D01*
X73579Y231518D01*
X76200Y231173D01*
X78821Y231518D01*
X81263Y232530D01*
X83361Y234139D01*
X84970Y236237D01*
X85982Y238679D01*
X86327Y241300D01*
X85982Y243921D01*
X84970Y246363D01*
X83361Y248461D01*
X81263Y250070D01*
X78821Y251082D01*
X76200Y251427D01*
D02*
G37*
G36*
X50800D02*
X48179Y251082D01*
X45737Y250070D01*
X43639Y248461D01*
X42030Y246363D01*
X41018Y243921D01*
X40673Y241300D01*
X41018Y238679D01*
X42030Y236237D01*
X43639Y234139D01*
X45737Y232530D01*
X48179Y231518D01*
X50800Y231173D01*
X53421Y231518D01*
X55863Y232530D01*
X57961Y234139D01*
X59570Y236237D01*
X60582Y238679D01*
X60927Y241300D01*
X60582Y243921D01*
X59570Y246363D01*
X57961Y248461D01*
X55863Y250070D01*
X53421Y251082D01*
X50800Y251427D01*
D02*
G37*
G36*
X179070Y227695D02*
Y223520D01*
X183245D01*
X183064Y224430D01*
X181829Y226279D01*
X179980Y227514D01*
X179070Y227695D01*
D02*
G37*
G36*
X176530D02*
X175620Y227514D01*
X173771Y226279D01*
X172536Y224430D01*
X172355Y223520D01*
X176530D01*
Y227695D01*
D02*
G37*
G36*
X183245Y220980D02*
X179070D01*
Y216805D01*
X179980Y216986D01*
X181829Y218221D01*
X183064Y220070D01*
X183245Y220980D01*
D02*
G37*
G36*
X176530D02*
X172355D01*
X172536Y220070D01*
X173771Y218221D01*
X175620Y216986D01*
X176530Y216805D01*
Y220980D01*
D02*
G37*
G36*
X76200Y226027D02*
X73579Y225682D01*
X71137Y224670D01*
X69039Y223061D01*
X67430Y220963D01*
X66418Y218521D01*
X66073Y215900D01*
X66418Y213279D01*
X67430Y210837D01*
X69039Y208739D01*
X71137Y207130D01*
X73579Y206118D01*
X76200Y205773D01*
X78821Y206118D01*
X81263Y207130D01*
X83361Y208739D01*
X84970Y210837D01*
X85982Y213279D01*
X86327Y215900D01*
X85982Y218521D01*
X84970Y220963D01*
X83361Y223061D01*
X81263Y224670D01*
X78821Y225682D01*
X76200Y226027D01*
D02*
G37*
G36*
X50800D02*
X48179Y225682D01*
X45737Y224670D01*
X43639Y223061D01*
X42030Y220963D01*
X41018Y218521D01*
X40673Y215900D01*
X41018Y213279D01*
X42030Y210837D01*
X43639Y208739D01*
X45737Y207130D01*
X48179Y206118D01*
X50800Y205773D01*
X53421Y206118D01*
X55863Y207130D01*
X57961Y208739D01*
X59570Y210837D01*
X60582Y213279D01*
X60927Y215900D01*
X60582Y218521D01*
X59570Y220963D01*
X57961Y223061D01*
X55863Y224670D01*
X53421Y225682D01*
X50800Y226027D01*
D02*
G37*
G36*
X293370Y208645D02*
Y204470D01*
X297545D01*
X297364Y205380D01*
X296129Y207229D01*
X294280Y208464D01*
X293370Y208645D01*
D02*
G37*
G36*
X290830D02*
X289920Y208464D01*
X288071Y207229D01*
X286836Y205380D01*
X286655Y204470D01*
X290830D01*
Y208645D01*
D02*
G37*
G36*
X297545Y201930D02*
X293370D01*
Y197755D01*
X294280Y197936D01*
X296129Y199171D01*
X297364Y201020D01*
X297545Y201930D01*
D02*
G37*
G36*
X290830D02*
X286655D01*
X286836Y201020D01*
X288071Y199171D01*
X289920Y197936D01*
X290830Y197755D01*
Y201930D01*
D02*
G37*
G36*
X196850Y189848D02*
X194670Y189414D01*
X192821Y188179D01*
X192033Y186999D01*
X163567D01*
X162779Y188179D01*
X160930Y189414D01*
X158750Y189848D01*
X156570Y189414D01*
X154721Y188179D01*
X153486Y186330D01*
X153053Y184150D01*
X153486Y181970D01*
X154721Y180121D01*
X156570Y178886D01*
X158750Y178452D01*
X160930Y178886D01*
X162779Y180121D01*
X163567Y181301D01*
X192033D01*
X192821Y180121D01*
X194670Y178886D01*
X196850Y178452D01*
X199030Y178886D01*
X200879Y180121D01*
X202114Y181970D01*
X202547Y184150D01*
X202114Y186330D01*
X200879Y188179D01*
X199030Y189414D01*
X196850Y189848D01*
D02*
G37*
G36*
X76200Y200627D02*
X73579Y200282D01*
X71137Y199270D01*
X69039Y197661D01*
X67430Y195563D01*
X66418Y193121D01*
X66073Y190500D01*
X66418Y187879D01*
X67430Y185437D01*
X69039Y183339D01*
X71137Y181730D01*
X73579Y180718D01*
X76200Y180373D01*
X78821Y180718D01*
X81263Y181730D01*
X83361Y183339D01*
X84970Y185437D01*
X85982Y187879D01*
X86327Y190500D01*
X85982Y193121D01*
X84970Y195563D01*
X83361Y197661D01*
X81263Y199270D01*
X78821Y200282D01*
X76200Y200627D01*
D02*
G37*
G36*
Y175227D02*
X73579Y174882D01*
X71137Y173870D01*
X69039Y172261D01*
X67430Y170163D01*
X66418Y167721D01*
X66073Y165100D01*
X66418Y162479D01*
X67430Y160037D01*
X69039Y157939D01*
X71137Y156330D01*
X73579Y155318D01*
X76200Y154973D01*
X78821Y155318D01*
X81263Y156330D01*
X83361Y157939D01*
X84970Y160037D01*
X85982Y162479D01*
X86327Y165100D01*
X85982Y167721D01*
X84970Y170163D01*
X83361Y172261D01*
X81263Y173870D01*
X78821Y174882D01*
X76200Y175227D01*
D02*
G37*
G36*
X140970Y149659D02*
Y140970D01*
X149659D01*
X149482Y142321D01*
X148470Y144763D01*
X146861Y146861D01*
X144763Y148470D01*
X142321Y149482D01*
X140970Y149659D01*
D02*
G37*
G36*
X138430D02*
X137079Y149482D01*
X134637Y148470D01*
X132539Y146861D01*
X130930Y144763D01*
X129918Y142321D01*
X129741Y140970D01*
X138430D01*
Y149659D01*
D02*
G37*
G36*
X50800Y124427D02*
X48179Y124082D01*
X45737Y123070D01*
X43639Y121461D01*
X42030Y119363D01*
X41018Y116921D01*
X40673Y114300D01*
X41018Y111679D01*
X42030Y109237D01*
X43639Y107139D01*
X45737Y105530D01*
X48179Y104518D01*
X50800Y104173D01*
X53421Y104518D01*
X55863Y105530D01*
X57961Y107139D01*
X59570Y109237D01*
X60582Y111679D01*
X60927Y114300D01*
X60582Y116921D01*
X59570Y119363D01*
X57961Y121461D01*
X55863Y123070D01*
X53421Y124082D01*
X50800Y124427D01*
D02*
G37*
G36*
X76200Y99027D02*
X73579Y98682D01*
X71137Y97670D01*
X69039Y96061D01*
X67430Y93963D01*
X66418Y91521D01*
X66073Y88900D01*
X66418Y86279D01*
X67430Y83837D01*
X69039Y81739D01*
X71137Y80130D01*
X73579Y79118D01*
X76200Y78773D01*
X78821Y79118D01*
X81263Y80130D01*
X83361Y81739D01*
X84970Y83837D01*
X85982Y86279D01*
X86327Y88900D01*
X85982Y91521D01*
X84970Y93963D01*
X83361Y96061D01*
X81263Y97670D01*
X78821Y98682D01*
X76200Y99027D01*
D02*
G37*
G36*
X50800D02*
X48179Y98682D01*
X45737Y97670D01*
X43639Y96061D01*
X42030Y93963D01*
X41018Y91521D01*
X40673Y88900D01*
X41018Y86279D01*
X42030Y83837D01*
X43639Y81739D01*
X45737Y80130D01*
X48179Y79118D01*
X50800Y78773D01*
X53421Y79118D01*
X55863Y80130D01*
X57961Y81739D01*
X59570Y83837D01*
X60582Y86279D01*
X60927Y88900D01*
X60582Y91521D01*
X59570Y93963D01*
X57961Y96061D01*
X55863Y97670D01*
X53421Y98682D01*
X50800Y99027D01*
D02*
G37*
G36*
X139700Y69198D02*
X137520Y68764D01*
X135671Y67529D01*
X134436Y65680D01*
X134003Y63500D01*
X134279Y62108D01*
X125820Y53649D01*
X68317D01*
X67529Y54829D01*
X65680Y56064D01*
X63500Y56498D01*
X61320Y56064D01*
X59471Y54829D01*
X58236Y52980D01*
X57803Y50800D01*
X58236Y48620D01*
X59471Y46771D01*
X61320Y45536D01*
X63500Y45103D01*
X65680Y45536D01*
X67529Y46771D01*
X68317Y47951D01*
X127000D01*
X127000Y47951D01*
X128090Y48168D01*
X129014Y48786D01*
X138308Y58079D01*
X139700Y57803D01*
X141880Y58236D01*
X143729Y59471D01*
X144964Y61320D01*
X145398Y63500D01*
X144964Y65680D01*
X143729Y67529D01*
X141880Y68764D01*
X139700Y69198D01*
D02*
G37*
%LPD*%
G36*
X305729Y884042D02*
X305452Y882650D01*
X305729Y881258D01*
X265520Y841049D01*
X246117D01*
X245329Y842229D01*
X243962Y843142D01*
X243734Y844320D01*
Y844780D01*
X243962Y845958D01*
X245329Y846871D01*
X246564Y848720D01*
X246998Y850900D01*
X246564Y853080D01*
X245329Y854929D01*
X243962Y855842D01*
X243734Y857020D01*
Y857480D01*
X243962Y858658D01*
X245329Y859571D01*
X246564Y861420D01*
X246998Y863600D01*
X246721Y864992D01*
X252839Y871111D01*
X253457Y872035D01*
X253674Y873125D01*
X253674Y873125D01*
Y879475D01*
X253674Y879475D01*
X253457Y880565D01*
X252839Y881489D01*
X247542Y886786D01*
X248595Y889326D01*
X300445D01*
X305729Y884042D01*
D02*
G37*
G36*
X232630Y887951D02*
X233466Y885195D01*
X213886Y865614D01*
X213268Y864690D01*
X213051Y863600D01*
X213051Y863600D01*
Y852080D01*
X185986Y825015D01*
X184883Y825230D01*
X183395Y826016D01*
X183064Y827680D01*
X181829Y829529D01*
X180462Y830442D01*
X180234Y831620D01*
Y832080D01*
X180462Y833258D01*
X181829Y834171D01*
X183064Y836020D01*
X183498Y838200D01*
X183221Y839592D01*
X231754Y888125D01*
X232630Y887951D01*
D02*
G37*
G36*
X210479Y661792D02*
X210203Y660400D01*
X210636Y658220D01*
X211871Y656371D01*
X213720Y655136D01*
X215900Y654703D01*
X218080Y655136D01*
X219929Y656371D01*
X220691Y657513D01*
X223560Y658236D01*
X252548Y629248D01*
Y525749D01*
X250202Y524777D01*
X158664Y616314D01*
X157740Y616932D01*
X156650Y617149D01*
X156650Y617149D01*
X149067D01*
X148279Y618329D01*
X146430Y619564D01*
X144250Y619997D01*
X142070Y619564D01*
X140221Y618329D01*
X138986Y616480D01*
X138553Y614300D01*
X138986Y612120D01*
X140221Y610271D01*
X142070Y609036D01*
X144250Y608602D01*
X146430Y609036D01*
X148279Y610271D01*
X149067Y611451D01*
X155470D01*
X190033Y576889D01*
X188980Y574349D01*
X182617D01*
X181829Y575529D01*
X179980Y576764D01*
X177800Y577197D01*
X175620Y576764D01*
X173771Y575529D01*
X172983Y574349D01*
X138063D01*
X128123Y584289D01*
X128399Y585681D01*
X127966Y587861D01*
X126731Y589710D01*
X125551Y590498D01*
Y642222D01*
X138308Y654979D01*
X139700Y654703D01*
X141880Y655136D01*
X143729Y656371D01*
X144964Y658220D01*
X145398Y660400D01*
X144964Y662580D01*
X143729Y664429D01*
X142362Y665342D01*
X142134Y666520D01*
Y666980D01*
X142362Y668158D01*
X143729Y669071D01*
X144517Y670251D01*
X202020D01*
X210479Y661792D01*
D02*
G37*
G36*
X42797Y653763D02*
X42030Y652763D01*
X41018Y650321D01*
X40673Y647700D01*
X41018Y645079D01*
X42030Y642637D01*
X43639Y640539D01*
X45737Y638930D01*
X48179Y637918D01*
X50800Y637573D01*
X53421Y637918D01*
X55863Y638930D01*
X57961Y640539D01*
X58111Y640736D01*
X60651Y639874D01*
Y630126D01*
X58111Y629264D01*
X57961Y629461D01*
X55863Y631070D01*
X53421Y632082D01*
X50800Y632427D01*
X48179Y632082D01*
X45737Y631070D01*
X43639Y629461D01*
X42030Y627363D01*
X41018Y624921D01*
X40673Y622300D01*
X41018Y619679D01*
X42030Y617237D01*
X43639Y615139D01*
X45737Y613530D01*
X48179Y612518D01*
X50800Y612173D01*
X53421Y612518D01*
X55863Y613530D01*
X56863Y614297D01*
X58742Y612537D01*
X58236Y611780D01*
X57803Y609600D01*
X58236Y607420D01*
X58742Y606662D01*
X56863Y604903D01*
X55863Y605670D01*
X53421Y606682D01*
X50800Y607027D01*
X48179Y606682D01*
X45737Y605670D01*
X43639Y604061D01*
X42030Y601963D01*
X41018Y599521D01*
X40673Y596900D01*
X41018Y594279D01*
X42030Y591837D01*
X43639Y589739D01*
X45737Y588130D01*
X48179Y587118D01*
X50800Y586773D01*
X53421Y587118D01*
X55863Y588130D01*
X57961Y589739D01*
X58111Y589936D01*
X60651Y589073D01*
Y584200D01*
X60651Y584200D01*
X60868Y583110D01*
X61486Y582186D01*
X67336Y576335D01*
X66418Y574121D01*
X66073Y571500D01*
X66418Y568879D01*
X67336Y566665D01*
X55635Y554964D01*
X53421Y555882D01*
X50800Y556227D01*
X48179Y555882D01*
X45737Y554870D01*
X43639Y553261D01*
X43489Y553064D01*
X40949Y553927D01*
Y557620D01*
X45964Y562636D01*
X48179Y561718D01*
X50800Y561373D01*
X53421Y561718D01*
X55863Y562730D01*
X57961Y564339D01*
X59570Y566437D01*
X60582Y568879D01*
X60927Y571500D01*
X60582Y574121D01*
X59570Y576563D01*
X57961Y578661D01*
X55863Y580270D01*
X53421Y581282D01*
X50800Y581627D01*
X48179Y581282D01*
X45737Y580270D01*
X43639Y578661D01*
X42030Y576563D01*
X41018Y574121D01*
X40673Y571500D01*
X41018Y568879D01*
X41936Y566665D01*
X37139Y561867D01*
X34599Y562920D01*
Y652870D01*
X36708Y654979D01*
X38100Y654703D01*
X40280Y655136D01*
X41038Y655642D01*
X42797Y653763D01*
D02*
G37*
G36*
X73579Y561718D02*
X76200Y561373D01*
X78821Y561718D01*
X81035Y562636D01*
X89226Y554445D01*
Y549275D01*
X89226Y549275D01*
X89443Y548185D01*
X90061Y547261D01*
X145613Y491708D01*
X145519Y490751D01*
X142875Y489804D01*
X86847Y545832D01*
X86315Y546187D01*
X85982Y548721D01*
X84970Y551163D01*
X83361Y553261D01*
X81263Y554870D01*
X78821Y555882D01*
X76200Y556227D01*
X73579Y555882D01*
X71137Y554870D01*
X69039Y553261D01*
X67430Y551163D01*
X66418Y548721D01*
X66073Y546100D01*
X66418Y543479D01*
X67430Y541037D01*
X68197Y540037D01*
X66438Y538158D01*
X65680Y538664D01*
X63500Y539098D01*
X61320Y538664D01*
X60563Y538158D01*
X58803Y540037D01*
X59570Y541037D01*
X60582Y543479D01*
X60927Y546100D01*
X60582Y548721D01*
X59664Y550936D01*
X71364Y562636D01*
X73579Y561718D01*
D02*
G37*
G36*
X36086Y505986D02*
X36086Y505986D01*
X37010Y505368D01*
X38100Y505151D01*
X42973D01*
X43836Y502611D01*
X43639Y502461D01*
X42030Y500363D01*
X41018Y497921D01*
X40673Y495300D01*
X41018Y492679D01*
X42030Y490237D01*
X43639Y488139D01*
X43836Y487989D01*
X42973Y485449D01*
X39280D01*
X28249Y496480D01*
Y510230D01*
X30789Y511283D01*
X36086Y505986D01*
D02*
G37*
G36*
X180635Y456686D02*
X181559Y456069D01*
X182649Y455852D01*
X182649Y455852D01*
X225284D01*
X226072Y454672D01*
X227920Y453437D01*
X230101Y453003D01*
X232281Y453437D01*
X233613Y454327D01*
X235515Y453792D01*
X236275Y453311D01*
X236501Y451887D01*
X234950Y450197D01*
X232770Y449764D01*
X230921Y448529D01*
X230133Y447349D01*
X177800D01*
X176710Y447132D01*
X175786Y446514D01*
X175786Y446514D01*
X156736Y427464D01*
X156118Y426540D01*
X155901Y425450D01*
X155901Y425450D01*
Y411217D01*
X154721Y410429D01*
X153808Y409062D01*
X152630Y408834D01*
X152170D01*
X150992Y409062D01*
X150079Y410429D01*
X148899Y411217D01*
Y481556D01*
X149139Y481944D01*
X150746Y483264D01*
X151316Y483468D01*
X152400Y483252D01*
X153792Y483529D01*
X180635Y456686D01*
D02*
G37*
G36*
X69236Y502611D02*
X69039Y502461D01*
X67430Y500363D01*
X66418Y497921D01*
X66073Y495300D01*
X66418Y492679D01*
X67430Y490237D01*
X69039Y488139D01*
X71137Y486530D01*
X73579Y485518D01*
X76200Y485173D01*
X78821Y485518D01*
X81263Y486530D01*
X83361Y488139D01*
X83511Y488336D01*
X86051Y487473D01*
Y477727D01*
X83511Y476864D01*
X83361Y477061D01*
X81263Y478670D01*
X78821Y479682D01*
X76200Y480027D01*
X73579Y479682D01*
X71364Y478764D01*
X65514Y484614D01*
X64590Y485232D01*
X63500Y485449D01*
X63500Y485449D01*
X58626D01*
X57764Y487989D01*
X57961Y488139D01*
X59570Y490237D01*
X60582Y492679D01*
X60927Y495300D01*
X60582Y497921D01*
X59570Y500363D01*
X57961Y502461D01*
X57764Y502611D01*
X58626Y505151D01*
X68373D01*
X69236Y502611D01*
D02*
G37*
G36*
X234422Y472749D02*
X233370Y470209D01*
X219620D01*
X189571Y500258D01*
X189848Y501650D01*
X189414Y503830D01*
X188179Y505679D01*
X188018Y505786D01*
X188788Y508326D01*
X198845D01*
X234422Y472749D01*
D02*
G37*
G36*
X69039Y589739D02*
X71137Y588130D01*
X73579Y587118D01*
X76200Y586773D01*
X78821Y587118D01*
X81263Y588130D01*
X83361Y589739D01*
X83511Y589936D01*
X86051Y589073D01*
Y581025D01*
X86051Y581025D01*
X86268Y579935D01*
X86886Y579011D01*
X156736Y509161D01*
X156736Y509161D01*
X157660Y508543D01*
X158750Y508326D01*
X179512D01*
X180282Y505786D01*
X180121Y505679D01*
X178886Y503830D01*
X178452Y501650D01*
X178886Y499470D01*
X180121Y497621D01*
X181970Y496386D01*
X184150Y495952D01*
X185542Y496229D01*
X216426Y465346D01*
X216426Y465346D01*
X217350Y464728D01*
X218440Y464511D01*
X221916D01*
X223273Y461971D01*
X222991Y461549D01*
X183829D01*
X157821Y487558D01*
X158097Y488950D01*
X157664Y491130D01*
X156429Y492979D01*
X154580Y494214D01*
X152400Y494647D01*
X151008Y494371D01*
X94924Y550455D01*
Y555625D01*
X94707Y556715D01*
X94089Y557639D01*
X94089Y557639D01*
X85064Y566665D01*
X85982Y568879D01*
X86327Y571500D01*
X85982Y574121D01*
X84970Y576563D01*
X83361Y578661D01*
X81263Y580270D01*
X78821Y581282D01*
X76200Y581627D01*
X73579Y581282D01*
X71364Y580364D01*
X66349Y585380D01*
Y589073D01*
X68889Y589936D01*
X69039Y589739D01*
D02*
G37*
G36*
X272251Y803220D02*
Y709667D01*
X271071Y708879D01*
X269836Y707030D01*
X269403Y704850D01*
X269836Y702670D01*
X271071Y700821D01*
X272251Y700033D01*
Y474600D01*
X272251Y474600D01*
X272468Y473510D01*
X273086Y472586D01*
X299779Y445892D01*
X299503Y444500D01*
X299936Y442320D01*
X301171Y440471D01*
X302351Y439683D01*
Y386950D01*
X302351Y386950D01*
X302568Y385860D01*
X303186Y384936D01*
X322785Y365336D01*
X322611Y364460D01*
X319855Y363624D01*
X262310Y421169D01*
Y439509D01*
X264132Y440236D01*
X264850Y440386D01*
X266570Y439236D01*
X268750Y438802D01*
X270930Y439236D01*
X272779Y440471D01*
X274014Y442320D01*
X274447Y444500D01*
X274014Y446680D01*
X272779Y448529D01*
X270930Y449764D01*
X268750Y450197D01*
X268609Y450169D01*
X266374Y452085D01*
Y803275D01*
X266374Y803275D01*
X266157Y804365D01*
X265539Y805289D01*
X265539Y805289D01*
X248087Y822741D01*
X248181Y823699D01*
X250825Y824646D01*
X272251Y803220D01*
D02*
G37*
G36*
X143201Y480676D02*
Y412247D01*
X141914Y411294D01*
X139374Y412531D01*
Y480543D01*
X141902Y481684D01*
X143201Y480676D01*
D02*
G37*
G36*
X327351Y430620D02*
Y385817D01*
X326171Y385029D01*
X324936Y383180D01*
X324502Y381000D01*
X324936Y378820D01*
X326171Y376971D01*
X328020Y375736D01*
X330200Y375303D01*
X330526Y375035D01*
Y369245D01*
X327986Y368192D01*
X308049Y388130D01*
Y439683D01*
X309229Y440471D01*
X310464Y442320D01*
X310728Y443651D01*
X313027Y444633D01*
X313320Y444651D01*
X327351Y430620D01*
D02*
G37*
G36*
X105101Y422494D02*
Y367182D01*
X102573Y366041D01*
X101274Y367049D01*
Y422778D01*
X102561Y423731D01*
X105101Y422494D01*
D02*
G37*
G36*
X93657Y454764D02*
X114626Y433795D01*
Y396875D01*
X114626Y396875D01*
X114843Y395785D01*
X115461Y394861D01*
X134279Y376042D01*
X134003Y374650D01*
X134279Y373258D01*
X128161Y367139D01*
X127543Y366215D01*
X127326Y365125D01*
X127326Y365125D01*
Y352620D01*
X124786Y351567D01*
X110799Y365555D01*
Y431800D01*
X110799Y431800D01*
X110582Y432890D01*
X109964Y433814D01*
X103614Y440164D01*
X102690Y440782D01*
X101600Y440999D01*
X101600Y440999D01*
X95250D01*
X94160Y440782D01*
X93236Y440164D01*
X93236Y440164D01*
X81035Y427964D01*
X78821Y428882D01*
X76200Y429227D01*
X73579Y428882D01*
X71137Y427870D01*
X69039Y426261D01*
X68889Y426064D01*
X66349Y426926D01*
Y430620D01*
X71364Y435636D01*
X73579Y434718D01*
X76200Y434373D01*
X78821Y434718D01*
X81263Y435730D01*
X83361Y437339D01*
X84970Y439437D01*
X85982Y441879D01*
X86327Y444500D01*
X85982Y447121D01*
X85064Y449336D01*
X90493Y454764D01*
X92075Y455007D01*
X93657Y454764D01*
D02*
G37*
G36*
X317826Y357595D02*
Y350195D01*
X315286Y349142D01*
X308846Y355582D01*
X307922Y356200D01*
X306832Y356417D01*
X306832Y356417D01*
X272701D01*
X271421Y358957D01*
X271964Y359770D01*
X272397Y361950D01*
X271964Y364130D01*
X270729Y365979D01*
X268880Y367214D01*
X266700Y367648D01*
X265308Y367371D01*
X258246Y374433D01*
Y413857D01*
X260592Y414829D01*
X317826Y357595D01*
D02*
G37*
G36*
X303097Y348179D02*
X303020Y348164D01*
X301171Y346929D01*
X300383Y345749D01*
X267880D01*
X265450Y348179D01*
X266502Y350719D01*
X302847D01*
X303097Y348179D01*
D02*
G37*
G36*
X133676Y481594D02*
Y406227D01*
X133676Y406226D01*
X133893Y405136D01*
X134511Y404212D01*
X141195Y397528D01*
X141195Y397528D01*
X142119Y396910D01*
X143209Y396693D01*
X143209Y396693D01*
X161417D01*
X161417Y396693D01*
X162507Y396910D01*
X163431Y397528D01*
X166965Y401062D01*
X169834Y400338D01*
X170596Y399196D01*
X172445Y397961D01*
X173355Y397780D01*
Y403225D01*
Y408938D01*
X171124Y410429D01*
Y421095D01*
X178980Y428951D01*
X202020D01*
X223656Y407315D01*
Y364045D01*
X223656Y364045D01*
X223873Y362955D01*
X224491Y362030D01*
X261279Y325242D01*
X261003Y323850D01*
X261436Y321670D01*
X262671Y319821D01*
X264520Y318586D01*
X266700Y318153D01*
X268880Y318586D01*
X270729Y319821D01*
X271964Y321670D01*
X272397Y323850D01*
X271964Y326030D01*
X270729Y327879D01*
X268880Y329114D01*
X266700Y329548D01*
X265308Y329271D01*
X229354Y365225D01*
Y408495D01*
X229354Y408495D01*
X229137Y409585D01*
X228519Y410509D01*
X228519Y410509D01*
X205214Y433814D01*
X204290Y434432D01*
X203200Y434649D01*
X203200Y434649D01*
X177800D01*
X177800Y434649D01*
X176710Y434432D01*
X175786Y433814D01*
X166261Y424289D01*
X165643Y423365D01*
X165426Y422275D01*
X165426Y422275D01*
Y412531D01*
X162886Y411294D01*
X161599Y412247D01*
Y424270D01*
X178980Y441651D01*
X230133D01*
X230921Y440471D01*
X232770Y439236D01*
X234950Y438802D01*
X237130Y439236D01*
X238979Y440471D01*
X240214Y442320D01*
X240648Y444500D01*
X240428Y445602D01*
X242111Y447232D01*
X244420Y446508D01*
Y362331D01*
X244420Y362331D01*
X244637Y361241D01*
X245255Y360317D01*
X264686Y340886D01*
X264686Y340886D01*
X265610Y340268D01*
X266700Y340051D01*
X300383D01*
X301171Y338871D01*
X303020Y337636D01*
X305200Y337202D01*
X307380Y337636D01*
X308616Y338462D01*
X310235Y336489D01*
X284570Y310824D01*
X230759D01*
X229669Y310607D01*
X228745Y309989D01*
X228745Y309989D01*
X227639Y308883D01*
X225099Y309936D01*
Y314325D01*
X225099Y314325D01*
X224882Y315415D01*
X224264Y316339D01*
X186999Y353605D01*
Y414283D01*
X188179Y415071D01*
X189414Y416920D01*
X189848Y419100D01*
X189414Y421280D01*
X188179Y423129D01*
X186330Y424364D01*
X184150Y424798D01*
X181970Y424364D01*
X180121Y423129D01*
X178886Y421280D01*
X178452Y419100D01*
X178886Y416920D01*
X180121Y415071D01*
X181301Y414283D01*
Y407863D01*
X178761Y407093D01*
X178654Y407254D01*
X176805Y408489D01*
X175895Y408670D01*
Y403225D01*
Y397780D01*
X176805Y397961D01*
X178654Y399196D01*
X178761Y399357D01*
X181301Y398587D01*
Y355274D01*
X150688D01*
X149918Y357814D01*
X150079Y357921D01*
X151314Y359770D01*
X151495Y360680D01*
X140605D01*
X140636Y360526D01*
X140071Y359074D01*
X138934Y357970D01*
X137520Y357689D01*
X135671Y356454D01*
X135564Y356293D01*
X133024Y357063D01*
Y363945D01*
X138308Y369229D01*
X139700Y368952D01*
X141880Y369386D01*
X143729Y370621D01*
X144964Y372470D01*
X145398Y374650D01*
X144964Y376830D01*
X143729Y378679D01*
X141880Y379914D01*
X139700Y380348D01*
X138308Y380071D01*
X120324Y398055D01*
Y434975D01*
X120324Y434975D01*
X120107Y436065D01*
X119489Y436989D01*
X119489Y436989D01*
X98099Y458380D01*
Y506358D01*
X99279Y507146D01*
X100514Y508995D01*
X100874Y510804D01*
X102071Y511494D01*
X103399Y511871D01*
X133676Y481594D01*
D02*
G37*
G36*
X317826Y332430D02*
Y305004D01*
X314121Y301299D01*
X240797D01*
X239844Y302586D01*
X241081Y305126D01*
X285750D01*
X285750Y305126D01*
X286840Y305343D01*
X287764Y305961D01*
X315286Y333483D01*
X317826Y332430D01*
D02*
G37*
G36*
X323986Y299514D02*
Y280390D01*
X307838Y264242D01*
X305885Y264401D01*
X304147Y266700D01*
X303714Y268880D01*
X302479Y270729D01*
X300630Y271964D01*
X298450Y272397D01*
X297058Y272121D01*
X285643Y283536D01*
X286695Y286076D01*
X298835D01*
X299102Y285750D01*
X299536Y283570D01*
X300771Y281721D01*
X302620Y280486D01*
X304800Y280053D01*
X306980Y280486D01*
X308829Y281721D01*
X310064Y283570D01*
X310497Y285750D01*
X310064Y287930D01*
X308829Y289779D01*
X306980Y291014D01*
X304800Y291448D01*
X302956Y291081D01*
X302243Y291557D01*
X301153Y291774D01*
X301153Y291774D01*
X241081D01*
X239844Y294314D01*
X240797Y295601D01*
X315301D01*
X315301Y295601D01*
X316392Y295818D01*
X317316Y296436D01*
X321446Y300566D01*
X323986Y299514D01*
D02*
G37*
G36*
X293029Y268092D02*
X292752Y266700D01*
X292944Y265739D01*
X291246Y263199D01*
X280580D01*
X272121Y271658D01*
X272397Y273050D01*
X271964Y275230D01*
X270729Y277079D01*
X270568Y277186D01*
X271338Y279726D01*
X281395D01*
X293029Y268092D01*
D02*
G37*
G36*
X205199Y305123D02*
X205521Y302479D01*
X204286Y300630D01*
X203853Y298450D01*
X204286Y296270D01*
X205521Y294421D01*
X207370Y293186D01*
X209550Y292752D01*
X210511Y292944D01*
X213051Y291246D01*
Y279400D01*
X213051Y279400D01*
X213268Y278310D01*
X213886Y277386D01*
X228163Y263109D01*
X228069Y262151D01*
X225425Y261204D01*
X200183Y286446D01*
Y306546D01*
X201421Y307367D01*
X202652Y307670D01*
X205199Y305123D01*
D02*
G37*
G36*
X262832Y277186D02*
X262671Y277079D01*
X261436Y275230D01*
X261003Y273050D01*
X261436Y270870D01*
X262671Y269021D01*
X264520Y267786D01*
X266700Y267353D01*
X268092Y267629D01*
X276332Y259389D01*
X275280Y256849D01*
X255180D01*
X240371Y271658D01*
X240648Y273050D01*
X240214Y275230D01*
X238979Y277079D01*
X238818Y277186D01*
X239588Y279726D01*
X262062D01*
X262832Y277186D01*
D02*
G37*
%LPC*%
G36*
X147320Y367395D02*
Y363220D01*
X151495D01*
X151314Y364130D01*
X150079Y365979D01*
X148230Y367214D01*
X147320Y367395D01*
D02*
G37*
G36*
X144780D02*
X143870Y367214D01*
X142021Y365979D01*
X140786Y364130D01*
X140605Y363220D01*
X144780D01*
Y367395D01*
D02*
G37*
%LPD*%
D10*
X117475Y565150D02*
X165100Y517525D01*
X228600D01*
X121158Y701167D02*
Y704551D01*
Y701167D02*
X142875Y679450D01*
X206375D01*
X190500Y717550D02*
Y742950D01*
X139700Y781050D02*
X140208Y780542D01*
X152908D01*
X101600Y711200D02*
Y777875D01*
X117475Y793750D02*
X215900D01*
X101600Y777875D02*
X117475Y793750D01*
X152908Y780542D02*
X190500Y742950D01*
X231775Y892175D02*
X301625D01*
X152400Y812800D02*
X177800Y838200D01*
X231775Y892175D01*
X301625D02*
X311150Y882650D01*
X238125Y885825D02*
X244475D01*
X250825Y879475D01*
X215900Y863600D02*
X238125Y885825D01*
X139700Y822325D02*
Y876300D01*
X76200Y825500D02*
X95250Y806450D01*
X158750D02*
X177800Y825500D01*
X95250Y806450D02*
X158750D01*
X120650Y812800D02*
X152400D01*
X95250Y838200D02*
X120650Y812800D01*
X215900Y850900D02*
Y863600D01*
X171450Y806450D02*
X215900Y850900D01*
Y793750D02*
X222250Y800100D01*
X250825Y873125D02*
Y879475D01*
X241300Y863600D02*
X250825Y873125D01*
X199136Y778256D02*
X208280Y787400D01*
X222550D01*
X228600Y793450D01*
X199136Y713486D02*
Y778256D01*
X203200Y708025D02*
Y774700D01*
X210820Y782320D02*
X226060D01*
X203200Y774700D02*
X210820Y782320D01*
X226060D02*
X233680Y789940D01*
Y843280D01*
X213360Y777240D02*
X228600D01*
X241300Y789940D01*
Y812800D01*
X208280Y772160D02*
X213360Y777240D01*
X208280Y703580D02*
Y772160D01*
X203200Y698500D02*
X208280Y703580D01*
X233680Y843280D02*
X241300Y850900D01*
X228600Y863600D02*
X241300Y876300D01*
X228600Y793450D02*
Y863600D01*
X196850Y711200D02*
X199136Y713486D01*
X200485Y705310D02*
X203200Y708025D01*
X162750Y719900D02*
X177340Y705310D01*
X148170Y719900D02*
X162750D01*
X139470Y711200D02*
X148170Y719900D01*
X177340Y705310D02*
X200485D01*
X171450Y698500D02*
X203200D01*
X180975Y711200D02*
X196850D01*
X158750D02*
X171450Y698500D01*
X177800Y714375D02*
X180975Y711200D01*
X177800Y714375D02*
Y723900D01*
X259461Y419989D02*
Y635889D01*
X200025Y511175D02*
X247269Y463931D01*
X156650Y614300D02*
X251333Y519617D01*
X247269Y362331D02*
X266700Y342900D01*
X251333Y366367D02*
X264132Y353568D01*
X251333Y366367D02*
Y519617D01*
X247269Y362331D02*
Y463931D01*
X255397Y373253D02*
Y630428D01*
X259461Y419989D02*
X320675Y358775D01*
X255397Y373253D02*
X266700Y361950D01*
X241300Y825500D02*
X263525Y803275D01*
Y449725D02*
X268750Y444500D01*
X263525Y449725D02*
Y803275D01*
X209550Y685800D02*
X259461Y635889D01*
X206375Y679450D02*
X255397Y630428D01*
X146050Y685800D02*
X209550D01*
X144250Y614300D02*
X156650D01*
X275100Y474600D02*
X305200Y444500D01*
X275100Y474600D02*
Y704850D01*
X338934Y570923D02*
X339725Y570132D01*
Y323850D02*
Y570132D01*
X336550Y577850D02*
X338934Y575466D01*
Y570923D02*
Y575466D01*
X292100Y203200D02*
X339725Y250825D01*
Y323850D01*
X346075D01*
X333375Y276225D02*
Y377734D01*
X330200Y380909D02*
Y431800D01*
Y380909D02*
X333375Y377734D01*
X311150Y254000D02*
X333375Y276225D01*
X305200Y386950D02*
X326835Y365315D01*
X307975Y260350D02*
X326835Y279210D01*
Y365315D01*
X315301Y298450D02*
X320675Y303824D01*
Y358775D01*
X306832Y353568D02*
X314325Y346075D01*
X285750Y307975D02*
X314325Y336550D01*
Y346075D01*
X230759Y307975D02*
X285750D01*
X279400Y260350D02*
X307975D01*
X266700Y273050D02*
X279400Y260350D01*
X254000Y254000D02*
X311150D01*
X234950Y273050D02*
X254000Y254000D01*
X234950Y298450D02*
X315301D01*
X264132Y353568D02*
X306832D01*
X197334Y285266D02*
Y307062D01*
Y285266D02*
X234950Y247650D01*
X228092Y305308D02*
X230759Y307975D01*
X231267Y288925D02*
X301153D01*
X228092Y292100D02*
X231267Y288925D01*
X301153D02*
X304328Y285750D01*
X229489Y282575D02*
X282575D01*
X298450Y266700D01*
X222250Y289814D02*
X229489Y282575D01*
X304328Y285750D02*
X304800D01*
X184150Y352425D02*
X222250Y314325D01*
Y289814D02*
Y314325D01*
X215900Y279400D02*
Y307975D01*
Y279400D02*
X234950Y260350D01*
X177800Y346075D02*
X215900Y307975D01*
X228092Y292100D02*
Y305308D01*
X266700Y342900D02*
X305200D01*
X136883Y571500D02*
X177800D01*
X122702Y585681D02*
X136883Y571500D01*
X177800D02*
X190500D01*
X239776Y449326D02*
Y463296D01*
X235712Y467360D02*
X239776Y463296D01*
X218440Y467360D02*
X235712D01*
X184150Y501650D02*
X218440Y467360D01*
X234950Y444500D02*
X239776Y449326D01*
X158750Y511175D02*
X200025D01*
X182649Y458701D02*
X230101D01*
X92075Y549275D02*
X182649Y458701D01*
X88900Y581025D02*
X158750Y511175D01*
X122702Y585681D02*
Y643402D01*
X139700Y660400D01*
X76200Y622300D02*
X88900Y609600D01*
Y581025D02*
Y609600D01*
X92075Y549275D02*
Y555625D01*
X76200Y571500D02*
X92075Y555625D01*
X95250Y457200D02*
X117475Y434975D01*
X95250Y457200D02*
Y511175D01*
X85899Y533400D02*
X136525Y482774D01*
Y406226D02*
Y482774D01*
X63500Y533400D02*
X85899D01*
X76200Y546100D02*
X78482Y543818D01*
X84832D01*
X146050Y482600D01*
Y406400D02*
Y482600D01*
X117475Y396875D02*
Y434975D01*
Y396875D02*
X139700Y374650D01*
X143209Y399542D02*
X161417D01*
X168275Y406400D01*
Y422275D01*
X177800Y431800D01*
X184150Y352425D02*
Y419100D01*
Y352425D02*
X184150Y352425D01*
X139700D02*
X184150D01*
X134838Y346075D02*
X177800D01*
X209042Y298958D02*
X209550Y298450D01*
X180975Y333375D02*
X209042Y305308D01*
Y298958D02*
Y305308D01*
X161290Y389890D02*
X174625Y403225D01*
X76200Y419100D02*
X95250Y438150D01*
X101600D01*
X107950Y431800D01*
Y364375D02*
Y431800D01*
Y364375D02*
X132600Y339725D01*
X98425Y365125D02*
Y428625D01*
Y365125D02*
X130683Y332867D01*
X136525Y406226D02*
X143209Y399542D01*
X130175Y350738D02*
X134838Y346075D01*
X130175Y365125D02*
X139700Y374650D01*
X130175Y350738D02*
Y365125D01*
X132600Y339725D02*
X164671D01*
X130683Y332867D02*
X162433D01*
X161290Y377190D02*
Y389890D01*
X146050Y361950D02*
X161290Y377190D01*
X164671Y339725D02*
X197334Y307062D01*
X162433Y332867D02*
X180975Y314325D01*
Y260350D02*
Y314325D01*
X139700Y323450D02*
X143275Y327025D01*
X152400D01*
X158750Y320675D01*
Y314325D02*
Y320675D01*
X101600Y165100D02*
Y257175D01*
X158750Y314325D01*
X139700Y282575D02*
X171450Y314325D01*
X139700Y184150D02*
Y282575D01*
X165100Y146050D02*
Y152400D01*
X146050Y127000D02*
X165100Y146050D01*
X146050Y127000D02*
X203200Y69850D01*
X69850Y127000D02*
X146050D01*
X63500Y133350D02*
X69850Y127000D01*
X63500Y133350D02*
Y152400D01*
X50800Y165100D02*
X63500Y152400D01*
X19050Y298450D02*
Y806450D01*
X37803Y825203D02*
X50503D01*
X19050Y806450D02*
X37803Y825203D01*
X31750Y514350D02*
Y654050D01*
X38100Y508000D02*
X82550D01*
X31750Y514350D02*
X38100Y508000D01*
X25400Y495300D02*
X38100Y482600D01*
X63500D01*
X25400Y495300D02*
Y698500D01*
X38100Y806450D02*
X44450Y812800D01*
X63500D01*
X38100Y685800D02*
Y806450D01*
X50503Y825203D02*
X50800Y825500D01*
X31750Y654050D02*
X38100Y660400D01*
X25400Y698500D02*
X30480Y703580D01*
X12700Y812800D02*
X50800Y850900D01*
X12700Y228600D02*
X50800Y190500D01*
X12700Y228600D02*
Y812800D01*
X19050Y298450D02*
X50800Y266700D01*
X38100Y533400D02*
Y558800D01*
Y533400D02*
X50800Y520700D01*
X38100Y558800D02*
X50800Y571500D01*
X111125Y279400D02*
X149225Y317500D01*
X88900Y279400D02*
X111125D01*
X76200Y266700D02*
X88900Y279400D01*
X127000Y50800D02*
X139700Y63500D01*
X63500Y50800D02*
X127000D01*
X31750Y330200D02*
Y349250D01*
X50800Y368300D01*
X82550Y508000D02*
X88900Y501650D01*
Y457200D02*
Y501650D01*
X76200Y444500D02*
X88900Y457200D01*
X63500Y431800D02*
X76200Y444500D01*
X63500Y330200D02*
Y431800D01*
Y330200D02*
X76200Y317500D01*
X177800Y222250D02*
X273050D01*
X38100Y685800D02*
X50800Y673100D01*
X63500Y838200D02*
Y863600D01*
Y838200D02*
X76200Y825500D01*
X50800Y876300D02*
X63500Y863600D01*
Y812800D02*
X76200Y825500D01*
X273050Y222250D02*
X292100Y203200D01*
X177800Y31750D02*
X203200Y57150D01*
Y69850D01*
X190500Y571500D02*
X234950Y527050D01*
X305200Y386950D02*
Y444500D01*
X241300Y838200D02*
X275100Y804400D01*
X241300Y838200D02*
X266700D01*
X275100Y704850D02*
Y804400D01*
X266700Y838200D02*
X311150Y882650D01*
X177800Y444500D02*
X234950D01*
X158750Y406400D02*
Y425450D01*
X177800Y444500D01*
X127000Y704850D02*
X146050Y685800D01*
X127000Y704850D02*
Y717550D01*
X139700Y730250D01*
X63500Y482600D02*
X76200Y469900D01*
Y139700D02*
X101600Y165100D01*
X158750Y184150D02*
X196850D01*
X120650Y705059D02*
Y730250D01*
Y705059D02*
X121158Y704551D01*
X120650Y730250D02*
X139700Y749300D01*
X50800Y520700D02*
X76200D01*
X226505Y364045D02*
X266700Y323850D01*
X226505Y364045D02*
Y408495D01*
X203200Y431800D02*
X226505Y408495D01*
X177800Y431800D02*
X203200D01*
X50800Y546100D02*
X76200Y571500D01*
X63500Y584200D02*
Y609600D01*
Y584200D02*
X76200Y571500D01*
X63500Y609600D02*
Y685800D01*
X76200Y698500D01*
X50800Y774700D02*
X63500Y762000D01*
Y711200D02*
Y762000D01*
Y711200D02*
X76200Y698500D01*
X203200Y673100D02*
X215900Y660400D01*
X139700Y673100D02*
X203200D01*
X292100Y469900D02*
X330200Y431800D01*
X230101Y458701D02*
X230101Y458701D01*
D44*
X330200Y952500D02*
D03*
X50800D02*
D03*
X330200Y-12700D02*
D03*
X50800D02*
D03*
D45*
X139700Y139700D02*
D03*
X76200Y88900D02*
D03*
Y114300D02*
D03*
Y139700D02*
D03*
Y165100D02*
D03*
Y190500D02*
D03*
Y215900D02*
D03*
Y241300D02*
D03*
Y266700D02*
D03*
Y292100D02*
D03*
Y317500D02*
D03*
Y342900D02*
D03*
X50800Y88900D02*
D03*
Y114300D02*
D03*
Y139700D02*
D03*
Y165100D02*
D03*
Y190500D02*
D03*
Y215900D02*
D03*
Y241300D02*
D03*
Y266700D02*
D03*
Y292100D02*
D03*
Y317500D02*
D03*
Y342900D02*
D03*
X76200Y368300D02*
D03*
Y393700D02*
D03*
X50800Y368300D02*
D03*
Y393700D02*
D03*
X76200Y469900D02*
D03*
X50800D02*
D03*
X76200Y495300D02*
D03*
X50800D02*
D03*
X76200Y546100D02*
D03*
X50800D02*
D03*
X76200Y673100D02*
D03*
X50800D02*
D03*
X76200Y723900D02*
D03*
X50800D02*
D03*
X76200Y774700D02*
D03*
X50800D02*
D03*
X76200Y825500D02*
D03*
X50800D02*
D03*
X76200Y850900D02*
D03*
X50800D02*
D03*
X76200Y876300D02*
D03*
X50800Y800100D02*
D03*
X76200D02*
D03*
X50800Y749300D02*
D03*
X76200D02*
D03*
X50800Y698500D02*
D03*
X76200D02*
D03*
X50800Y647700D02*
D03*
X76200D02*
D03*
X50800Y622300D02*
D03*
X76200D02*
D03*
X50800Y596900D02*
D03*
X76200D02*
D03*
X50800Y571500D02*
D03*
X76200D02*
D03*
X50800Y520700D02*
D03*
X76200D02*
D03*
X50800Y444500D02*
D03*
Y419100D02*
D03*
X76200Y444500D02*
D03*
Y419100D02*
D03*
X247650Y762000D02*
D03*
X336550Y577850D02*
D03*
D46*
X114300Y139700D02*
D03*
X222250Y762000D02*
D03*
X311150Y577850D02*
D03*
D47*
X50800Y876300D02*
D03*
D48*
X117475Y565150D02*
D03*
X190500Y717550D02*
D03*
X139700Y781050D02*
D03*
Y822325D02*
D03*
X177800Y825500D02*
D03*
X228600Y517525D02*
D03*
X101600Y711200D02*
D03*
X95250Y511175D02*
D03*
X174625Y403225D02*
D03*
X98425Y428625D02*
D03*
X139700Y352425D02*
D03*
X146050Y361950D02*
D03*
X180975Y333375D02*
D03*
Y260350D02*
D03*
X346075Y323850D02*
D03*
X139700Y374650D02*
D03*
X171450Y314325D02*
D03*
X111125Y279400D02*
D03*
X139700Y323450D02*
D03*
X149225Y317500D02*
D03*
X139700Y63500D02*
D03*
X63500Y50800D02*
D03*
X31750Y330200D02*
D03*
X38100Y660400D02*
D03*
X241300Y825500D02*
D03*
X268750Y444500D02*
D03*
X177800Y222250D02*
D03*
X292100Y203200D02*
D03*
X165100Y152400D02*
D03*
X158750Y406400D02*
D03*
X177800Y31750D02*
D03*
X203200Y69850D02*
D03*
X184150Y501650D02*
D03*
X122702Y585681D02*
D03*
X95250Y838200D02*
D03*
X139700Y660400D02*
D03*
X177800Y571500D02*
D03*
Y838200D02*
D03*
X234950Y444500D02*
D03*
X266700Y273050D02*
D03*
X305200Y444500D02*
D03*
X234950Y527050D02*
D03*
X241300Y838200D02*
D03*
X275100Y704850D02*
D03*
X311150Y882650D02*
D03*
X209550Y298450D02*
D03*
X305200Y342900D02*
D03*
X139700Y730250D02*
D03*
X234950Y298450D02*
D03*
X241300Y850900D02*
D03*
X139470Y711200D02*
D03*
X139700Y876300D02*
D03*
X30480Y703580D02*
D03*
X177800Y723900D02*
D03*
X241300Y876300D02*
D03*
X196850Y184150D02*
D03*
X158750D02*
D03*
X298450Y266700D02*
D03*
X184150Y419100D02*
D03*
X139700Y184150D02*
D03*
X304800Y285750D02*
D03*
X144250Y614300D02*
D03*
X139700Y749300D02*
D03*
X266700Y361950D02*
D03*
X234950Y247650D02*
D03*
X146050Y406400D02*
D03*
X234950Y260350D02*
D03*
X63500Y533400D02*
D03*
X266700Y323850D02*
D03*
X241300Y863600D02*
D03*
X171450Y806450D02*
D03*
X222250Y800100D02*
D03*
X158750Y711200D02*
D03*
X241300Y812800D02*
D03*
X63500Y609600D02*
D03*
X152400Y488950D02*
D03*
X139700Y673100D02*
D03*
X234950Y273050D02*
D03*
X330200Y381000D02*
D03*
X230101Y458701D02*
D03*
X292100Y469900D02*
D03*
X215900Y660400D02*
D03*
M02*
